<?xml version="1.0" standalone="no"?>
<!DOCTYPE svg PUBLIC "-//W3C//DTD SVG 1.1//EN" "http://www.w3.org/Graphics/SVG/1.1/DTD/svg11.dtd" >
<svg>
<metadata>
Created by FontForge 20090622 at Mon Nov 27 11:56:12 2017
 By deploy user
Copyright 1990 Martin Majoor. Published by FontShop International for the FontFont library. ScalaSans is a trademark of FSI, Fonts and Software GmbH. http://www.fontfont.de
</metadata>
<defs>
<font id="ScalaSans-Regular" horiz-adv-x="550" >
  <font-face 
    font-family="Scala Sans"
    font-weight="500"
    font-stretch="normal"
    units-per-em="1000"
    panose-1="0 0 0 0 0 0 0 0 0 0"
    ascent="800"
    descent="-200"
    x-height="453"
    cap-height="660"
    bbox="-124 -256 1200 868"
    underline-thickness="37"
    underline-position="-148"
    unicode-range="U+0020-U+FB02"
  />
<missing-glyph horiz-adv-x="250" 
 />
    <glyph glyph-name=".notdef" horiz-adv-x="250" 
 />
    <glyph glyph-name=".null" horiz-adv-x="0" 
 />
    <glyph glyph-name="nonmarkingreturn" horiz-adv-x="333" 
 />
    <glyph glyph-name="space" unicode=" " horiz-adv-x="250" 
 />
    <glyph glyph-name="exclam" unicode="!" horiz-adv-x="264" 
d="M181 736l-6 -541h-76l-6 541h88zM194 44q0 -23 -17 -40t-40 -17t-40 17t-17 40t17 40t40 17t40 -17t17 -40z" />
    <glyph glyph-name="quotedbl" unicode="&#x22;" horiz-adv-x="412" 
d="M319 434h-69v226h69v-226zM162 434h-69v226h69v-226z" />
    <glyph glyph-name="numbersign" unicode="#" horiz-adv-x="650" 
d="M595 458l-10 -57h-112l-25 -130h114l-10 -57h-116l-41 -214h-62l41 214h-143l-43 -214h-61l43 214h-115l10 57h116l27 130h-116l10 57h116l40 200h60l-39 -200h143l39 200h62l-39 -200h111zM411 401h-143l-26 -130h143z" />
    <glyph glyph-name="dollar" unicode="$" horiz-adv-x="534" 
d="M480 616l-38 -68q-37 22 -69 34q-39 14 -75 16v-230q6 -4 21 -13q82 -48 103 -65q52 -41 52 -118q0 -85 -60 -136q-23 -20 -47 -29.5t-69 -16.5v-59h-44l-1 56q-74 4 -118 22q-30 12 -85 49l42 65q49 -32 75 -44q33 -14 86 -18v240l-41 24q-80 47 -110.5 84t-30.5 87
q0 71 47.5 116.5t134.5 56.5l1 60h44v-59q62 -3 102 -15q33 -11 80 -39zM253 390v207q-101 -18 -101 -95q0 -45 41 -72q36 -25 37 -26q21 -18 23 -14zM393 162q0 36 -9 49q-7 10 -61 54q-16 13 -25 13v-215q43 8 69 35t26 64z" />
    <glyph glyph-name="percent" unicode="%" horiz-adv-x="850" 
d="M816 162q0 -72 -51.5 -123.5t-123.5 -51.5q-73 0 -124 51.5t-51 123.5q0 73 51 124t124 51q72 0 123.5 -51t51.5 -124zM744 692l-572 -736h-69l572 736h69zM384 495q0 -73 -51 -124t-124 -51q-72 0 -123.5 51t-51.5 124t51.5 124.5t123.5 51.5q73 0 124 -51.5t51 -124.5z
M755 162q0 48 -33.5 81.5t-80.5 33.5q-48 0 -81.5 -33.5t-33.5 -81.5q0 -47 33.5 -80.5t81.5 -33.5q47 0 80.5 33.5t33.5 80.5zM324 495q0 47 -33.5 81t-81.5 34q-47 0 -80.5 -34t-33.5 -81q0 -48 33.5 -81.5t80.5 -33.5q48 0 81.5 33.5t33.5 81.5z" />
    <glyph glyph-name="ampersand" unicode="&#x26;" horiz-adv-x="701" 
d="M709 101q-29 -44 -54 -69q-44 -44 -100 -44q-26 0 -53 10q-34 14 -85 69q-46 -43 -92 -61.5t-105 -18.5q-92 0 -147 49t-55 131q0 52 27 94t97 99l43 35l-37 49q-53 70 -53 130q0 74 53.5 120t141.5 46q80 0 130 -39.5t50 -102.5q0 -70 -89 -136l-46 -34l-39 50l40 30
q55 42 55 88q0 35 -29 57.5t-73 22.5q-49 0 -81.5 -27.5t-32.5 -69.5q0 -13 5 -30q6 -23 16.5 -41t45.5 -67l192 -266q39 42 54 79t21 105h69q-6 -76 -23 -118q-20 -50 -83 -118q30 -38 50 -52t43 -14q24 0 44.5 16.5t50.5 60.5zM381 120l-159 222l-42 -34q-44 -35 -62 -65
t-18 -67q0 -55 36.5 -87.5t98.5 -32.5q40 0 73 14q27 12 73 50z" />
    <glyph glyph-name="quotesingle" unicode="'" horiz-adv-x="251" 
d="M160 434h-69v226h69v-226z" />
    <glyph glyph-name="parenleft" unicode="(" horiz-adv-x="363" 
d="M349 -245h-75q-26 32 -38.5 54.5t-37.5 81.5q-68 161 -68 322q0 158 68 321q28 68 39.5 88t36.5 44h75q-59 -71 -97.5 -199t-38.5 -257q0 -130 38 -257t98 -198z" />
    <glyph glyph-name="parenright" unicode=")" horiz-adv-x="363" 
d="M241 213q0 -155 -68 -322q-23 -55 -36 -78.5t-40 -57.5h-75q60 71 98 198t38 257q0 129 -38.5 257t-97.5 199h75q25 -25 36.5 -45.5t39.5 -86.5q68 -163 68 -321z" />
    <glyph glyph-name="asterisk" unicode="*" horiz-adv-x="500" 
d="M474 471l-162 -46l-19 56l159 58zM287 660l-7 -169h-58l-6 169h71zM410 274l-57 -42l-94 140l47 35zM206 481l-19 -56l-162 46l22 68zM242 372l-94 -140l-58 42l104 132z" />
    <glyph glyph-name="plus" unicode="+" 
d="M512 208h-209v-208h-56v208h-209v57h209v209h56v-209h209v-57z" />
    <glyph glyph-name="comma" unicode="," horiz-adv-x="252" 
d="M176 36q0 -23 -8 -53q-13 -42 -46 -104l-13 -24h-44q11 25 22 57q10 30 17 62l-43 108q27 18 58 18q57 0 57 -64z" />
    <glyph glyph-name="hyphen" unicode="-" horiz-adv-x="276" 
d="M233 190h-191v76h191v-76z" />
    <glyph glyph-name="period" unicode="." horiz-adv-x="251" 
d="M182 45q0 -24 -16.5 -40.5t-39.5 -16.5q-24 0 -40.5 16.5t-16.5 40.5q0 23 16.5 39.5t40.5 16.5q23 0 39.5 -16.5t16.5 -39.5z" />
    <glyph glyph-name="slash" unicode="/" horiz-adv-x="409" 
d="M364 660l-252 -905h-69l252 905h69z" />
    <glyph glyph-name="zero" unicode="0" horiz-adv-x="570" 
d="M539 234q0 -104 -72.5 -178t-175.5 -74t-176 74t-73 178q0 105 73 179t176 74t175.5 -74t72.5 -179zM464 234q0 79 -51 135t-122 56q-72 0 -123 -56t-51 -135t51 -135t123 -56q71 0 122 56t51 135z" />
    <glyph glyph-name="one" unicode="1" horiz-adv-x="390" 
d="M247 0h-75v415h-113v63h188v-478z" />
    <glyph glyph-name="two" unicode="2" horiz-adv-x="494" 
d="M444 0h-402v38l232 201q50 42 50 97q0 37 -24.5 59.5t-63.5 22.5q-38 0 -66 -18q-20 -12 -71 -67l-51 38q47 55 72 74q51 40 124 40t115.5 -39.5t42.5 -106.5q0 -35 -12 -64q-9 -23 -27 -43t-67 -61l-129 -108h277v-63z" />
    <glyph glyph-name="three" unicode="3" horiz-adv-x="430" 
d="M368 30q0 -110 -84 -175t-225 -65h-25v64q68 1 105 9t72 28q39 22 61 57t22 75q0 58 -36.5 89t-104.5 31h-50v55q77 17 118 54t41 89q0 36 -20 57.5t-54 21.5q-26 0 -48.5 -11.5t-61.5 -43.5l-44 50q20 18 38 30q61 41 130 41q61 0 97 -37.5t36 -99.5q0 -104 -100 -154
q38 -12 54 -21q79 -43 79 -144z" />
    <glyph glyph-name="four" unicode="4" horiz-adv-x="526" 
d="M510 0h-116v-210h-72v210h-315v19l352 465h35v-421h116v-63zM323 338l-15 -30l-171 -229l-19 -21l25 5h179l-1 244z" />
    <glyph glyph-name="five" unicode="5" horiz-adv-x="413" 
d="M364 25q0 -59 -26.5 -109t-74.5 -81q-40 -26 -95 -37q-40 -8 -114 -12v63q77 5 122 18q53 17 81.5 56.5t28.5 96.5q0 77 -44 119q-35 32 -120 35l-49 2v302h271v-63h-199v-176l39 -3q84 -7 132 -63t48 -148z" />
    <glyph glyph-name="six" unicode="6" horiz-adv-x="544" 
d="M482 210q0 -100 -57 -165.5t-145 -65.5q-98 0 -155 77t-57 210q0 178 96 300q82 104 223 104q22 0 65 -4v-62q-25 3 -53 3q-48 0 -81 -10q-54 -18 -100 -74q-32 -39 -47 -74t-29 -103q47 22 57 26q57 23 113 23q76 0 123 -51.5t47 -133.5zM416 202q0 56 -33.5 92
t-85.5 36q-21 0 -59 -9q-42 -11 -96 -38q-1 -21 -1 -40q0 -88 39 -142.5t102 -54.5q57 0 95.5 45t38.5 111z" />
    <glyph glyph-name="seven" unicode="7" horiz-adv-x="465" 
d="M432 440l-145 -365q-21 -51 -52 -108q-47 -84 -111 -162l-58 49q34 39 40 48q74 95 119 211l114 296h-297v69h390v-38z" />
    <glyph glyph-name="eight" unicode="8" horiz-adv-x="499" 
d="M457 149q0 -72 -60 -118t-155 -46q-89 0 -144.5 45t-55.5 118q0 40 16 72q10 19 31 44.5t39 38.5l71 55l-65 55q-39 33 -52.5 56t-13.5 56q0 68 52 110.5t135 42.5q78 0 127 -38.5t49 -99.5q0 -68 -63 -119l-69 -56l82 -70q17 -13 34 -35q25 -29 33.5 -52.5t8.5 -58.5z
M351 540q0 36 -28 57.5t-76 21.5q-44 0 -72.5 -24.5t-28.5 -62.5q0 -43 49 -85l54 -45l55 45q47 39 47 93zM377 156q0 50 -65 108l-63 57l-63 -51q-65 -52 -65 -114q0 -50 32.5 -77.5t91.5 -27.5q61 0 96.5 28t35.5 77z" />
    <glyph glyph-name="nine" unicode="9" horiz-adv-x="544" 
d="M485 199q0 -178 -95 -299q-83 -105 -224 -105q-21 0 -64 4v63q32 -4 52 -4q49 0 82 11q51 16 100 73q32 39 47 74.5t28 103.5q-40 -20 -57 -26q-58 -24 -113 -24q-75 0 -122.5 51.5t-47.5 133.5q0 100 57.5 166t144.5 66q99 0 155.5 -77t56.5 -211zM412 222
q0 89 -38.5 143.5t-102.5 54.5q-56 0 -94.5 -45t-38.5 -112q0 -56 33.5 -92t85.5 -36q26 0 59 9q40 10 95 38q1 21 1 40z" />
    <glyph glyph-name="colon" unicode=":" horiz-adv-x="251" 
d="M182 409q0 -24 -16.5 -40.5t-39.5 -16.5q-24 0 -40.5 16.5t-16.5 40.5q0 23 16.5 39.5t40.5 16.5q23 0 39.5 -16.5t16.5 -39.5zM182 45q0 -24 -16.5 -40.5t-39.5 -16.5q-24 0 -40.5 16.5t-16.5 40.5q0 23 16.5 39.5t40.5 16.5q23 0 39.5 -16.5t16.5 -39.5z" />
    <glyph glyph-name="semicolon" unicode=";" horiz-adv-x="251" 
d="M183 409q0 -24 -16.5 -40.5t-40.5 -16.5q-23 0 -39.5 16.5t-16.5 40.5q0 23 16.5 39.5t39.5 16.5q24 0 40.5 -16.5t16.5 -39.5zM176 36q0 -23 -8 -53q-13 -48 -46 -104l-14 -24h-44q9 18 22 57q10 29 18 62l-43 108q27 18 58 18q57 0 57 -64z" />
    <glyph glyph-name="less" unicode="&#x3c;" 
d="M511 0l-472 210v54l472 210v-63l-396 -174l396 -174v-63z" />
    <glyph glyph-name="equal" unicode="=" 
d="M525 273h-500v57h500v-57zM525 134h-500v57h500v-57z" />
    <glyph glyph-name="greater" unicode="&#x3e;" 
d="M511 210l-472 -210v63l396 174l-396 174v63l472 -210v-54z" />
    <glyph glyph-name="question" unicode="?" horiz-adv-x="418" 
d="M365 446q0 -74 -42 -116q-21 -21 -37.5 -27.5t-50.5 -6.5h-51v-107h-75v176h151q27 39 27 79q0 87 -55.5 146.5t-147.5 71.5l25 76q73 -15 113 -38q65 -37 104 -106.5t39 -147.5zM203 45q0 -24 -16.5 -40.5t-39.5 -16.5q-24 0 -40.5 16.5t-16.5 40.5q0 23 16.5 39.5
t40.5 16.5q23 0 39.5 -16.5t16.5 -39.5z" />
    <glyph glyph-name="at" unicode="@" horiz-adv-x="1000" 
d="M905 265q0 -127 -67 -200.5t-183 -73.5q-104 0 -104 95q0 25 7 56l5 23q-45 -77 -101.5 -122.5t-107.5 -45.5q-30 0 -48 40.5t-18 107.5q0 141 68 237t167 96q22 0 60 -5q35 -6 91 -23l-52 -326q-4 -24 -4 -42t15.5 -30t38.5 -12q21 0 50 12q119 53 119 207
q0 132 -92.5 223.5t-225.5 91.5q-155 0 -255.5 -100t-100.5 -254q0 -158 120 -252q86 -68 209 -68q80 0 154 33l23 -59q-23 -10 -33 -15q-61 -24 -146 -24q-84 0 -143 19.5t-116 66.5q-136 110 -136 297q0 185 118 303t303 118q169 0 277 -105t108 -269zM599 398
q-48 16 -78 16q-64 0 -109 -80t-45 -192q0 -62 31 -62q21 0 71 52q16 16 45 57q59 87 73 154z" />
    <glyph glyph-name="A" unicode="A" horiz-adv-x="595" 
d="M587 0h-88l-68 195h-267l-68 -195h-88l246 679h88zM405 270l-107 302l-108 -302h215z" />
    <glyph glyph-name="B" unicode="B" horiz-adv-x="591" 
d="M532 176q0 -79 -49.5 -127.5t-129.5 -48.5h-244v660h214q87 0 132 -41q52 -49 52 -121q0 -53 -30 -93.5t-83 -58.5q66 -13 102 -57.5t36 -112.5zM420 491q0 49 -27 76q-23 24 -89 24h-113v-214h107q61 0 90 29q32 32 32 85zM445 182q0 58 -36.5 89t-104.5 31h-113v-233
h113q76 0 106 25q35 30 35 88z" />
    <glyph glyph-name="C" unicode="C" horiz-adv-x="605" 
d="M582 609l-41 -62q-71 50 -162 50q-105 0 -172.5 -73t-67.5 -186q0 -125 70 -200t186 -75q77 0 152 31l23 -64q-50 -23 -89 -32q-45 -11 -91 -11q-149 0 -244.5 97t-95.5 249q0 145 95 242t237 97q63 0 124 -22q38 -14 76 -41z" />
    <glyph glyph-name="D" unicode="D" horiz-adv-x="711" 
d="M661 333q0 -136 -89 -237q-45 -52 -101.5 -74t-142.5 -22h-219v660h220q145 0 238.5 -92t93.5 -235zM575 334q0 110 -73.5 183.5t-185.5 73.5h-125v-522h125q65 0 105.5 14t72.5 46q36 38 58.5 94.5t22.5 110.5z" />
    <glyph glyph-name="E" unicode="E" horiz-adv-x="539" 
d="M489 0h-380v660h371v-69h-289v-220h239v-69h-239v-233h298v-69z" />
    <glyph glyph-name="F" unicode="F" horiz-adv-x="522" 
d="M480 591h-289v-226h239v-70h-239v-295h-82v660h371v-69z" />
    <glyph glyph-name="G" unicode="G" horiz-adv-x="708" 
d="M616 25q-27 -10 -48 -16q-71 -22 -166 -22q-149 0 -250.5 99t-101.5 245q0 147 99 243.5t250 96.5q79 0 137 -15q34 -9 80 -35l-31 -68q-8 5 -35 18q-62 26 -143 26q-70 0 -118 -20t-86 -64q-65 -76 -65 -176q0 -119 81.5 -197.5t205.5 -78.5q42 0 109 14v220h82v-270z
" />
    <glyph glyph-name="H" unicode="H" horiz-adv-x="771" 
d="M662 0h-82v302h-389v-302h-82v660h82v-283h389v283h82v-660z" />
    <glyph glyph-name="I" unicode="I" horiz-adv-x="300" 
d="M191 0h-82v660h82v-660z" />
    <glyph glyph-name="J" unicode="J" horiz-adv-x="300" 
d="M191 -19q-20 -68 -51 -118q-30 -47 -81 -96l-53 45q54 60 73 95q30 60 30 150v603h82v-679z" />
    <glyph glyph-name="K" unicode="K" horiz-adv-x="571" 
d="M562 0h-101l-264 333l258 327h94l-258 -321zM191 0h-82v660h82v-660z" />
    <glyph glyph-name="L" unicode="L" horiz-adv-x="495" 
d="M486 0h-377v660h82v-591h295v-69z" />
    <glyph glyph-name="M" unicode="M" horiz-adv-x="878" 
d="M769 0h-82v578q-7 -36 -25 -81l-195 -497h-75l-182 484q-18 48 -26 88v-572h-75v660h113l201 -528q9 -24 13 -50q5 32 12 50l208 528h113v-660z" />
    <glyph glyph-name="N" unicode="N" horiz-adv-x="759" 
d="M650 -6h-95l-333 515q-9 15 -13 23q-8 13 -8 15q-5 9 -10 25v-572h-82v660h107l327 -503q3 -4 9 -16q1 -3 2.5 -6t2 -5.5t2.5 -7l5 -11.5q0 -1 1.5 -4.5t2.5 -5.5v559h82v-666z" />
    <glyph glyph-name="O" unicode="O" horiz-adv-x="763" 
d="M713 330q0 -149 -93.5 -246t-237.5 -97t-238 97t-94 246q0 148 94 245t238 97t237.5 -96.5t93.5 -245.5zM623 330q0 111 -71 190.5t-170 79.5q-100 0 -171 -79.5t-71 -190.5q0 -112 71 -191.5t171 -79.5q99 0 170 79.5t71 191.5z" />
    <glyph glyph-name="P" unicode="P" horiz-adv-x="556" 
d="M528 465q0 -103 -63 -163t-172 -60q-25 0 -102 8v-250h-82v660h207q60 0 96.5 -12t64.5 -40q51 -52 51 -143zM443 460q0 66 -37 103q-28 28 -102 28h-113v-272q55 -6 88 -6q54 0 86 13q36 15 57 51t21 83z" />
    <glyph glyph-name="Q" unicode="Q" horiz-adv-x="763" 
d="M713 329q0 -131 -75.5 -224t-200.5 -117q12 -15 33 -38q28 -28 54 -48q42 -33 117 -65l-46 -63q-79 41 -131 82q-32 25 -53.5 48t-57.5 66l-14 17q-53 9 -76 17q-94 32 -153.5 123.5t-59.5 202.5q0 149 93.5 245.5t238.5 96.5q144 0 237.5 -97t93.5 -246zM624 330
q0 111 -71 190.5t-171 79.5t-171.5 -79.5t-71.5 -190.5q0 -112 71.5 -191.5t171.5 -79.5t171 79.5t71 191.5z" />
    <glyph glyph-name="R" unicode="R" horiz-adv-x="584" 
d="M555 0h-94l-182 283h-88v-283h-82v660h201q60 0 93.5 -10.5t62.5 -38.5q52 -50 52 -129q0 -82 -58 -137q-36 -36 -100 -50zM430 481q0 63 -36 91q-15 12 -33 15.5t-63 3.5h-107v-239h107q132 0 132 129z" />
    <glyph glyph-name="S" unicode="S" horiz-adv-x="534" 
d="M480 616l-38 -68q-43 25 -69 34q-44 14 -91 14q-56 0 -91 -25.5t-35 -67.5q0 -37 31 -64t132 -81q70 -37 104 -67q51 -43 51 -120q0 -85 -58.5 -134.5t-158.5 -49.5q-67 0 -122 22q-30 12 -85 49l42 65q47 -32 76 -43q45 -17 95 -17q59 0 92 26.5t33 73.5q0 30 -10 47
q-17 32 -56 54l-110 59q-74 40 -107.5 81t-33.5 92q0 79 60 127t158 48q62 0 111 -16q33 -11 80 -39z" />
    <glyph glyph-name="T" unicode="T" horiz-adv-x="539" 
d="M530 591h-220v-591h-82v591h-220v69h522v-69z" />
    <glyph glyph-name="U" unicode="U" horiz-adv-x="700" 
d="M608 226q0 -66 -17.5 -108t-58.5 -76q-75 -61 -181 -61q-107 0 -182 61q-41 34 -59 76.5t-18 107.5v434h82v-409q0 -62 7 -88t31 -52q51 -57 138 -57t138 57q24 26 31 52t7 88v409h82v-434z" />
    <glyph glyph-name="V" unicode="V" horiz-adv-x="583" 
d="M574 660l-256 -677h-50l-260 677h88l195 -515q6 -18 7 -32q0 15 6 32l188 515h82z" />
    <glyph glyph-name="W" unicode="W" horiz-adv-x="864" 
d="M856 660l-250 -673h-51l-119 312l-120 -312h-44l-264 673h88l202 -545l104 271l-104 274h75l66 -173l67 173h68l-101 -262l108 -282l194 544h81z" />
    <glyph glyph-name="X" unicode="X" horiz-adv-x="572" 
d="M563 0h-94l-182 269l-184 -269h-95l231 337l-220 323h94l175 -254l173 254h93l-221 -324z" />
    <glyph glyph-name="Y" unicode="Y" 
d="M542 660l-232 -352v-308h-82v302l-220 358h88l177 -283l182 283h87z" />
    <glyph glyph-name="Z" unicode="Z" horiz-adv-x="595" 
d="M554 0h-512v38l382 553h-382v69h494v-44l-382 -547h400v-69z" />
    <glyph glyph-name="bracketleft" unicode="[" horiz-adv-x="250" 
d="M237 -245h-164v905h164v-56h-88v-793h88v-56z" />
    <glyph glyph-name="backslash" unicode="\" horiz-adv-x="409" 
d="M364 -245h-69l-252 905h69z" />
    <glyph glyph-name="bracketright" unicode="]" horiz-adv-x="250" 
d="M177 -245h-164v56h88v793h-88v56h164v-905z" />
    <glyph glyph-name="asciicircum" unicode="^" horiz-adv-x="522" 
d="M498 1h-63l-174 395l-174 -395h-63l210 472h54z" />
    <glyph glyph-name="underscore" unicode="_" horiz-adv-x="500" 
d="M500 -57h-500v57h500v-57z" />
    <glyph glyph-name="grave" unicode="`" horiz-adv-x="383" 
d="M270 497h-69l-113 163h100z" />
    <glyph glyph-name="a" unicode="a" horiz-adv-x="476" 
d="M425 50l-18 -63q-46 3 -65.5 17t-22.5 46q-31 -27 -48 -36q-45 -26 -96 -26q-55 0 -88 32.5t-33 86.5q0 102 101 126l157 37v82q0 56 -86 56q-69 0 -69 -39q0 -6 4 -17l-76 -16q-8 14 -8 28q0 45 45 73t118 28q68 0 108 -30.5t40 -82.5v-245v-33q3 -18 37 -24zM312 113
v94l-170 -44q-13 -25 -13 -49q0 -27 16.5 -43t44.5 -16q25 0 49 11.5t73 46.5z" />
    <glyph glyph-name="b" unicode="b" horiz-adv-x="527" 
d="M484 247q0 -118 -72 -189t-193 -71q-43 0 -91 10q-26 7 -46 16v716h75v-295q29 15 52 21q38 10 85 10q86 0 138 -60t52 -158zM402 244q0 71 -35 110.5t-98 39.5q-59 0 -112 -36v-289q29 -14 66 -14q22 0 39 4q37 7 72 32q37 27 52.5 61.5t15.5 91.5z" />
    <glyph glyph-name="c" unicode="c" horiz-adv-x="444" 
d="M431 35q-22 -14 -30 -17q-57 -31 -126 -31q-103 0 -167.5 65t-64.5 169q0 107 66.5 175.5t170.5 68.5q34 0 67 -9q37 -10 75 -37l-43 -61q-47 39 -102 39q-68 0 -110 -47.5t-42 -124.5q0 -78 42.5 -123.5t115.5 -45.5q59 0 109 38z" />
    <glyph glyph-name="d" unicode="d" horiz-adv-x="539" 
d="M458 0h-76v57q-62 -70 -150 -70q-83 0 -136 63.5t-53 163.5q0 109 65 180t166 71q67 0 108 -31v295h76v-729zM382 138v157q0 43 -9 60q-20 38 -91 38q-72 0 -115 -48t-43 -130q0 -68 34 -112.5t87 -44.5q45 0 88 31q22 15 49 49z" />
    <glyph glyph-name="e" unicode="e" horiz-adv-x="469" 
d="M432 233h-310q0 -83 39.5 -130t108.5 -47q53 0 118 45l30 -59q-50 -32 -85 -43.5t-79 -11.5q-95 0 -153 66t-58 173q0 108 58.5 173.5t155.5 65.5q79 0 127 -51.5t48 -136.5v-44zM350 289q-1 52 -26 80t-72 28q-98 0 -124 -108h222z" />
    <glyph glyph-name="f" unicode="f" horiz-adv-x="282" 
d="M396 717l-31 -63q-44 15 -74 15q-115 0 -115 -160v-56h107v-63h-107v-390h-75v390h-76v44l76 19v75q0 97 53 154t142 57q52 0 100 -22z" />
    <glyph glyph-name="g" unicode="g" horiz-adv-x="507" 
d="M488 390h-95q27 -40 27 -94q0 -69 -52.5 -120t-123.5 -51q-2 0 -28 2q-1 0 -6 0.5t-9 0.5q-59 -49 -59 -68q0 -16 38 -16h169q63 0 92.5 -25.5t29.5 -80.5q0 -80 -71.5 -135.5t-173.5 -55.5q-71 0 -124 32.5t-53 76.5q0 19 14 47q17 32 60 78q-35 10 -50 22.5t-15 31.5
q0 40 89 113q-87 47 -87 144q0 76 50.5 124.5t130.5 48.5q40 0 96 -19h69l82 7v-63zM338 295q0 47 -29.5 80t-72.5 33q-41 0 -70.5 -33t-29.5 -80t29.5 -80t71.5 -33q43 0 72 32.5t29 80.5zM408 -71q0 46 -59 46h-169l-15 -23q-38 -59 -38 -80q0 -25 30 -41.5t76 -16.5
q69 0 122 34.5t53 80.5z" />
    <glyph glyph-name="h" unicode="h" horiz-adv-x="536" 
d="M455 0h-76v321q0 38 -7 53q-11 24 -45 24q-35 0 -75.5 -28t-98.5 -93v-277h-75v729h75v-371q39 44 61 62q54 45 122 45q119 0 119 -126v-339z" />
    <glyph glyph-name="i" unicode="i" horiz-adv-x="247" 
d="M173 611q0 -20 -14.5 -34.5t-34.5 -14.5t-34.5 14.5t-14.5 34.5t14.5 34.5t34.5 14.5t34.5 -14.5t14.5 -34.5zM161 0h-75v453h75v-453z" />
    <glyph glyph-name="j" unicode="j" horiz-adv-x="245" 
d="M170 612q0 -20 -14.5 -34.5t-34.5 -14.5t-34.5 14.5t-14.5 34.5t14.5 34.5t34.5 14.5t34.5 -14.5t14.5 -34.5zM159 -75q-24 -58 -51 -102q-23 -39 -56 -79l-50 42q41 56 58 92q24 48 24 116v459h75v-528z" />
    <glyph glyph-name="k" unicode="k" horiz-adv-x="454" 
d="M445 0h-99l-187 246l187 207h98l-193 -208zM157 0h-75v729h75v-729z" />
    <glyph glyph-name="l" unicode="l" horiz-adv-x="239" 
d="M157 0h-75v729h75v-729z" />
    <glyph glyph-name="m" unicode="m" horiz-adv-x="847" 
d="M765 0h-75v321q0 39 -7 53q-11 24 -46 24q-58 0 -153 -99l-21 -22v-277h-75v321q0 39 -7 53q-11 24 -46 24t-75 -28t-99 -93v-277h-75v453h75v-95q36 41 62 62q53 45 121 45q111 0 118 -108q37 42 63 63q53 45 121 45q119 0 119 -126v-339z" />
    <glyph glyph-name="n" unicode="n" horiz-adv-x="545" 
d="M463 0h-75v321q0 35 -7 53q-11 24 -46 24t-75 -28t-99 -93v-277h-75v453h75v-95q36 41 62 62q53 45 121 45q119 0 119 -126v-339z" />
    <glyph glyph-name="o" unicode="o" horiz-adv-x="533" 
d="M490 226q0 -98 -66 -168.5t-157 -70.5q-92 0 -158 70.5t-66 168.5t66 168.5t158 70.5t157.5 -70.5t65.5 -168.5zM408 226q0 72 -41 122t-100 50q-60 0 -101 -50t-41 -122t41 -122t101 -50q59 0 100 50t41 122z" />
    <glyph glyph-name="p" unicode="p" horiz-adv-x="543" 
d="M500 239q0 -109 -65 -180t-166 -71q-67 0 -108 31v-258h-75v692h75v-57q60 70 149 70q84 0 137 -63.5t53 -163.5zM419 238q0 68 -34 112.5t-87 44.5q-42 0 -88 -31q-23 -17 -49 -50v-157q0 -42 9 -59q22 -39 91 -39q72 0 115 48.5t43 130.5z" />
    <glyph glyph-name="q" unicode="q" horiz-adv-x="520" 
d="M445 -239h-75v257q-30 -15 -52 -21q-36 -11 -85 -11q-85 0 -137.5 60t-52.5 156q0 116 73 189.5t188 73.5q53 0 95 -10q21 -5 46 -16v-678zM370 93v289q-27 14 -68 14q-80 0 -128.5 -52t-48.5 -138q0 -70 35.5 -109t97.5 -39q58 0 112 35z" />
    <glyph glyph-name="r" unicode="r" horiz-adv-x="337" 
d="M337 434l-37 -63q-21 18 -32 18q-41 0 -107 -119v-270h-75v453h75v-82q42 54 67 74t51 20q27 0 58 -31z" />
    <glyph glyph-name="s" unicode="s" horiz-adv-x="447" 
d="M387 117q0 -61 -42 -95.5t-116 -34.5q-29 0 -63 6q-51 10 -107 38l31 63q30 -16 34 -18q53 -25 104 -25q35 0 57.5 17t22.5 43q0 18 -9 31q-14 20 -37 33.5t-83 38.5q-66 28 -92 55t-26 68q0 59 46 93.5t126 34.5q34 0 58 -5q39 -7 88 -34l-37 -61q-36 22 -65 30t-52 8
q-38 0 -61 -15.5t-23 -41.5q0 -17 11 -28q14 -14 33 -24t79 -35q72 -30 97.5 -59.5t25.5 -82.5z" />
    <glyph glyph-name="t" unicode="t" horiz-adv-x="309" 
d="M292 44q-40 -33 -63.5 -45t-50.5 -12q-39 0 -63 28t-24 73v302h-76v44l76 19v132h75v-132h120v-63h-120v-258l1 -20l2 -28q1 -22 26 -22q23 0 66 32z" />
    <glyph glyph-name="u" unicode="u" horiz-adv-x="541" 
d="M459 0h-76v94q-78 -108 -180 -108q-121 0 -121 127v340h75v-321q0 -42 12.5 -60.5t41.5 -18.5q36 0 84.5 34.5t87.5 88.5v277h76v-453z" />
    <glyph glyph-name="v" unicode="v" horiz-adv-x="447" 
d="M432 453l-176 -466h-69l-170 466h82l125 -367l2 -18l1 17l123 368h82z" />
    <glyph glyph-name="w" unicode="w" horiz-adv-x="668" 
d="M662 453l-157 -466h-61l-102 283l-7 25l-6 -25l-107 -283h-63l-151 466h82l109 -361l1 -13l1 13l102 282l-30 79h79l120 -360l1 -14l1 14l113 360h75z" />
    <glyph glyph-name="x" unicode="x" horiz-adv-x="402" 
d="M394 0h-92l-104 169l-106 -169h-84l152 229l-152 224h93l100 -168l101 168h86l-150 -221z" />
    <glyph glyph-name="y" unicode="y" horiz-adv-x="405" 
d="M396 453l-178 -478q-30 -81 -63 -133q-25 -41 -68 -95l-60 46q55 61 86 117q30 54 63 140l-168 403h84l109 -277l15 -44l10 44l93 277h77z" />
    <glyph glyph-name="z" unicode="z" horiz-adv-x="460" 
d="M422 0h-390v38l277 348h-264v67h377v-32l-281 -354h281v-67z" />
    <glyph glyph-name="braceleft" unicode="{" horiz-adv-x="409" 
d="M386 -243h-56q-70 0 -101 30.5t-31 101.5v220q0 113 -76 113h-36v55h36q76 0 76 113v220q0 70 31 101t101 31h56v-63h-44q-38 0 -56 -30q-13 -19 -13 -71v-201q0 -34 -1 -45q-3 -29 -19.5 -50.5t-39.5 -26.5l-25 -6l24 -4q26 -5 44 -32q17 -27 17 -91v-202q0 -49 13 -70
q8 -13 24 -21.5t32 -8.5h44v-63z" />
    <glyph glyph-name="bar" unicode="|" horiz-adv-x="250" 
d="M162 -239h-70v968h70v-968z" />
    <glyph glyph-name="braceright" unicode="}" horiz-adv-x="409" 
d="M327 222h-36q-76 0 -76 -113v-220q0 -71 -30.5 -101.5t-101.5 -30.5h-56v63h44q38 0 56 30q13 20 13 70v202q0 33 1 45q3 29 19.5 50.5t39.5 26.5l25 5l-24 5q-27 6 -44 32q-17 27 -17 91v201q0 50 -13 71q-8 13 -24 21.5t-32 8.5h-44v63h56q71 0 101.5 -31t30.5 -101
v-220q0 -111 76 -113l36 -1v-54z" />
    <glyph glyph-name="asciitilde" unicode="~" horiz-adv-x="544" 
d="M530 232q-40 -29 -75 -43q-48 -17 -91 -17q-32 0 -58 7.5t-73 29.5q-41 20 -71 20q-62 0 -125 -49l-29 42q40 33 78 48q45 18 81 18t80 -20l50 -22q42 -18 71 -18q31 0 64 11q28 10 65 37z" />
    <glyph glyph-name="exclamdown" unicode="&#xa1;" horiz-adv-x="264" 
d="M189 453q0 -23 -16.5 -39.5t-39.5 -16.5t-40 16.5t-17 39.5q0 24 17 40.5t40 16.5t39.5 -16.5t16.5 -40.5zM177 -238h-88l6 540h75z" />
    <glyph glyph-name="cent" unicode="&#xa2;" horiz-adv-x="444" 
d="M431 35q-44 -28 -82 -38t-81 -10q-3 0 -27 2l-16 -83h-44l17 92l-10 4q-51 21 -77 46q-68 65 -68 173q0 104 65.5 174.5t162.5 70.5q10 0 17 -1l16 84h44l-16 -89q32 -8 48 -15.5t42 -25.5l-43 -61q-28 24 -61 34l-63 -333q16 -3 26 -3q61 0 111 38zM275 397
q-2 0 -5.5 0.5t-4.5 0.5q-58 0 -99 -50.5t-41 -122.5q0 -86 50 -130q8 -8 37 -27z" />
    <glyph glyph-name="sterling" unicode="&#xa3;" horiz-adv-x="576" 
d="M648 654l-57 -38q-13 29 -26.5 37.5t-45.5 8.5q-45 0 -81 -36q-19 -21 -30 -44.5t-25 -78.5l-88 -340h189l-25 -69h-189l-40 -148l-15 -45q-2 -7 -5 -14.5l-4.5 -11.5t-1.5 -5q-2 -2 -5.5 -9t-5.5 -12q11 2 24 2q15 0 26 -2q9 -1 21 -3t15 -2q21 -7 54 -16q30 -9 67 -9
q52 0 52 38q0 11 -3 24q0 2 -2 11t-3 16l75 11q11 -51 11 -71q0 -95 -132 -95q-39 0 -80 9l-69 16q-35 8 -70 8h-8q-31 0 -68 -7q-17 -5 -71 -17q-2 -1 -32 -7l13 75q56 7 82 25q47 33 71 126l29 113h-126l19 57l126 12l100 359q24 85 37 112.5t42 52.5q53 45 134 45
q49 0 75 -17t46 -61z" />
    <glyph glyph-name="yen" unicode="&#xa5;" 
d="M542 660l-207 -314h139v-57h-164v-69h164v-57h-164v-163h-82v163h-163v57h163v69h-163v57h138l-195 314h88l177 -283l182 283h87z" />
    <glyph glyph-name="brokenbar" unicode="&#xa6;" horiz-adv-x="220" 
d="M148 291h-72v438h72v-438zM148 -239h-72v438h72v-438z" />
    <glyph glyph-name="section" unicode="&#xa7;" horiz-adv-x="396" 
d="M351 672l-54 -43q-28 47 -81 47q-52 0 -82 -43.5t-30 -117.5q0 -75 58 -279q65 -234 65 -305q0 -33 -23 -71l-36 13q12 24 12 41q0 33 -13 80l-73 258q-51 181 -51 279q0 92 49 147.5t131 55.5q33 0 65 -10q31 -11 63 -52zM346 -40q0 -92 -49 -147.5t-131 -55.5
q-36 0 -64 9q-32 11 -63 53l53 43q29 -47 82 -47q52 0 82 43t30 117q0 67 -59 279q-64 226 -64 305q0 32 22 72l36 -14q-11 -23 -11 -41q0 -36 12 -80l73 -258q51 -179 51 -278z" />
    <glyph glyph-name="dieresis" unicode="&#xa8;" horiz-adv-x="269" 
d="M202 0h-135v130h135v-130z" />
    <glyph glyph-name="copyright" unicode="&#xa9;" horiz-adv-x="1009" 
d="M915 243q0 -170 -120.5 -290.5t-290.5 -120.5t-290 120.5t-120 290.5q0 169 120 289.5t290 120.5t290.5 -120t120.5 -290zM851 243q0 143 -101.5 244.5t-245.5 101.5q-143 0 -244.5 -101.5t-101.5 -244.5q0 -144 101.5 -245.5t244.5 -101.5q144 0 245.5 101.5
t101.5 245.5zM682 50q-22 -14 -32 -18q-60 -31 -132 -31q-109 0 -176.5 65t-67.5 170q0 106 70 174.5t179 68.5q37 0 71 -9q38 -10 79 -37l-46 -61q-48 39 -107 39q-71 0 -115.5 -47.5t-44.5 -124.5q0 -78 45 -123.5t122 -45.5q61 0 114 38z" />
    <glyph glyph-name="ordfeminine" unicode="&#xaa;" horiz-adv-x="373" 
d="M327 401l-17 -55q-63 3 -72 36q-43 -35 -96 -35q-41 0 -66.5 23.5t-25.5 62.5q0 75 77 92l104 23v50q0 30 -53 30q-41 0 -41 -19q0 -1 6 -17l-67 -13q-10 14 -10 27q0 34 34.5 54t87.5 20q50 0 80.5 -22t30.5 -60v-165v-21q2 -7 28 -11zM231 491l-106 -26q-7 -13 -7 -27
q0 -32 35 -32q26 0 78 35v50z" />
    <glyph glyph-name="guillemotleft" unicode="&#xab;" horiz-adv-x="560" 
d="M505 38l-226 188l226 189v-82l-132 -107l132 -107v-81zM266 38l-226 188l226 189v-82l-132 -107l132 -107v-81z" />
    <glyph glyph-name="logicalnot" unicode="&#xac;" 
d="M525 109h-62v163h-438v56h418h82v-56v-163z" />
    <glyph glyph-name="registered" unicode="&#xae;" horiz-adv-x="979" 
d="M900 243q0 -170 -120 -290.5t-290 -120.5t-290.5 120.5t-120.5 290.5t120.5 290t290.5 120t290 -120.5t120 -289.5zM836 243q0 143 -101.5 244.5t-244.5 101.5q-144 0 -245.5 -101.5t-101.5 -244.5q0 -144 101.5 -245.5t245.5 -101.5q143 0 244.5 101.5t101.5 245.5z
M696 6h-101l-145 195h-50v-195h-82v472h170q92 0 134.5 -31.5t42.5 -101.5q0 -59 -33.5 -95.5t-93.5 -42.5zM584 343q0 46 -30 61q-24 11 -78 11h-76v-157h76q108 0 108 85z" />
    <glyph glyph-name="macron" unicode="&#xaf;" horiz-adv-x="406" 
d="M341 539h-273v63h273v-63z" />
    <glyph glyph-name="degree" unicode="&#xb0;" horiz-adv-x="333" 
d="M286 547q0 -50 -35.5 -85.5t-86.5 -35.5q-50 0 -85.5 35.5t-35.5 85.5t35.5 86t85.5 36q51 0 86.5 -36t35.5 -86zM236 547q0 30 -21 51t-51 21q-29 0 -50 -21t-21 -51q0 -29 21 -50t50 -21q30 0 51 21t21 50z" />
    <glyph glyph-name="plusminus" unicode="&#xb1;" 
d="M512 249h-209v-169h-56v169h-209v56h209v169h56v-169h209v-56zM512 0h-474v57h474v-57z" />
    <glyph glyph-name="twosuperior" unicode="&#xb2;" horiz-adv-x="346" 
d="M318 355h-296v36l165 137q32 26 32 59q0 22 -14.5 35t-39.5 13q-33 0 -60 -24l-35 -35l-47 34q39 43 56 56q37 28 92 28q54 0 86 -28.5t32 -76.5q0 -27 -12 -49.5t-23.5 -33.5t-41.5 -35l-74 -59h180v-57z" />
    <glyph glyph-name="threesuperior" unicode="&#xb3;" horiz-adv-x="301" 
d="M265 378q0 -78 -61.5 -124t-162.5 -46h-25v58q86 1 128 24q54 30 54 84q0 74 -91 74h-42v50q111 23 111 91q0 22 -12 34.5t-32 12.5q-27 0 -78 -40l-41 44q22 18 33 26q44 29 95 29q46 0 73.5 -27.5t27.5 -72.5q0 -68 -59 -103q82 -28 82 -114z" />
    <glyph glyph-name="acute" unicode="&#xb4;" horiz-adv-x="383" 
d="M345 660l-113 -163h-69l94 163h88z" />
    <glyph glyph-name="mu" unicode="&#xb5;" horiz-adv-x="541" 
d="M459 0h-76v94q-78 -108 -180 -108q-21 0 -43 5l4 -229h-88l6 540v151h75v-313v-23q1 -64 54 -64q36 0 84.5 34.5t87.5 88.5v277h76v-453z" />
    <glyph glyph-name="paragraph" unicode="&#xb6;" horiz-adv-x="644" 
d="M522 -226h-57v899h-69v-899h-57v471h-50q-95 0 -165 72.5t-70 170.5q0 107 75 182q35 35 75 50.5t98 15.5h220v-962z" />
    <glyph glyph-name="periodcentered" unicode="&#xb7;" horiz-adv-x="251" 
d="M182 240q0 -23 -16.5 -40t-39.5 -17q-24 0 -40.5 17t-16.5 40t16.5 40t40.5 17q23 0 39.5 -17t16.5 -40z" />
    <glyph glyph-name="cedilla" unicode="&#xb8;" horiz-adv-x="444" 
d="M334 -145q0 -40 -27 -65.5t-68 -25.5q-33 0 -99 22l25 51q51 -22 77 -22q17 0 28.5 10.5t11.5 26.5q0 22 -15 31.5t-51 9.5h-32l57 94h50l-31 -56q35 0 54.5 -19.5t19.5 -56.5z" />
    <glyph glyph-name="onesuperior" unicode="&#xb9;" horiz-adv-x="273" 
d="M180 355h-67v278h-79v57h146v-335z" />
    <glyph glyph-name="ordmasculine" unicode="&#xba;" horiz-adv-x="373" 
d="M350 513q0 -68 -48 -117.5t-115 -49.5q-68 0 -116 49.5t-48 117.5q0 69 48 118t116 49q67 0 115 -49.5t48 -117.5zM278 513q0 46 -26.5 77t-64.5 31q-39 0 -65.5 -31t-26.5 -77t26.5 -77t65.5 -31q38 0 64.5 31t26.5 77z" />
    <glyph glyph-name="guillemotright" unicode="&#xbb;" horiz-adv-x="560" 
d="M520 226l-227 -188v81l132 107l-132 107v82zM281 226l-227 -188v81l133 107l-133 107v82z" />
    <glyph glyph-name="onequarter" unicode="&#xbc;" horiz-adv-x="757" 
d="M206 355h-67v278h-80v57h147v-335zM653 685l-565 -729h-88l566 729h87zM700 -1h-82v-142h-65v142h-220v23l250 321h35v-286h82v-58zM553 207l-115 -150h115v150z" />
    <glyph glyph-name="onehalf" unicode="&#xbd;" horiz-adv-x="757" 
d="M717 0h-296v36l165 137q32 27 32 59q0 22 -14.5 35t-39.5 13q-33 0 -60 -24l-35 -35l-48 34q42 45 57 56q37 28 92 28q54 0 86 -28.5t32 -76.5q0 -27 -12 -49.5t-23.5 -33.5t-41.5 -35l-75 -59h181v-57zM206 355h-67v278h-80v57h147v-335zM653 685l-565 -729h-88l566 729
h87z" />
    <glyph glyph-name="threequarters" unicode="&#xbe;" horiz-adv-x="757" 
d="M723 685l-565 -729h-88l566 729h87zM730 -1h-82v-142h-65v142h-220v23l250 321h35v-286h82v-58zM275 378q0 -78 -61.5 -124t-162.5 -46h-25v58q86 1 128 24q54 30 54 84q0 74 -91 74h-42v50q111 23 111 91q0 22 -12 34.5t-32 12.5q-27 0 -78 -40l-41 44q22 18 33 26
q43 29 95 29q46 0 73.5 -27.5t27.5 -72.5q0 -68 -59 -103q82 -28 82 -114zM583 207l-115 -150h115v150z" />
    <glyph glyph-name="questiondown" unicode="&#xbf;" horiz-adv-x="418" 
d="M350 454q0 -24 -16.5 -40.5t-40.5 -16.5q-23 0 -39.5 16.5t-16.5 40.5q0 23 16.5 39.5t39.5 16.5q24 0 40.5 -16.5t16.5 -39.5zM356 -164l-25 -75q-69 13 -114 38q-65 37 -103.5 106t-38.5 148q0 74 42 115q21 21 37.5 27.5t50.5 6.5h51v108h75v-176h-152
q-26 -38 -26 -80q0 -87 55.5 -146.5t147.5 -71.5z" />
    <glyph glyph-name="Agrave" unicode="&#xc0;" horiz-adv-x="595" 
d="M339 715h-69l-114 118h88zM587 0h-88l-68 195h-267l-68 -195h-88l246 679h88zM405 270l-107 302l-108 -302h215z" />
    <glyph glyph-name="Aacute" unicode="&#xc1;" horiz-adv-x="595" 
d="M450 833l-113 -118h-70l95 118h88zM587 0h-88l-68 195h-267l-68 -195h-88l246 679h88zM405 270l-107 302l-108 -302h215z" />
    <glyph glyph-name="Acircumflex" unicode="&#xc2;" horiz-adv-x="595" 
d="M446 696h-70l-76 67l-75 -67h-68l112 117h63zM587 0h-88l-68 195h-267l-68 -195h-88l246 679h88zM405 270l-107 302l-108 -302h215z" />
    <glyph glyph-name="Atilde" unicode="&#xc3;" horiz-adv-x="595" 
d="M497 758q-26 -25 -56 -37q-36 -16 -70 -16q-36 0 -87 27q-37 19 -56 19t-35 -8q-18 -8 -45 -26l-32 44q41 26 61 35q30 15 62 15q8 0 12 -1q16 -1 27 -6t51 -26q31 -17 52 -17q20 0 36 7t49 30zM587 0h-88l-68 195h-267l-68 -195h-88l246 679h88zM405 270l-107 302
l-108 -302h215z" />
    <glyph glyph-name="Adieresis" unicode="&#xc4;" horiz-adv-x="595" 
d="M440 758q0 -20 -14.5 -35t-35.5 -15t-36 15t-15 35q0 21 15 36t36 15t35.5 -15t14.5 -36zM255 758q0 -20 -15 -35t-36 -15q-20 0 -35 15t-15 35q0 21 15 36t35 15q21 0 36 -15t15 -36zM587 0h-88l-68 195h-267l-68 -195h-88l246 679h88zM405 270l-107 302l-108 -302h215z
" />
    <glyph glyph-name="Aring" unicode="&#xc5;" horiz-adv-x="595" 
d="M379 788q0 -33 -23 -56t-56 -23t-56.5 23t-23.5 56t23.5 56.5t56.5 23.5t56 -23.5t23 -56.5zM587 0h-88l-68 195h-267l-68 -195h-88l246 679h88zM341 788q0 17 -12 29.5t-29 12.5t-29.5 -12.5t-12.5 -29.5t12.5 -29t29.5 -12t29 12t12 29zM405 270l-107 302l-108 -302
h215z" />
    <glyph glyph-name="AE" unicode="&#xc6;" horiz-adv-x="794" 
d="M744 0h-377v195h-195l-94 -195h-95l333 660h51h371v-69h-294v-220h243v-69h-243v-233h300v-69zM367 270v338l-164 -338h164z" />
    <glyph glyph-name="Ccedilla" unicode="&#xc7;" horiz-adv-x="605" 
d="M582 609l-41 -62q-71 50 -162 50q-105 0 -172.5 -73t-67.5 -186q0 -125 70 -200t186 -75q77 0 152 31l23 -64q-41 -19 -74 -28q-52 -13 -97 -13h-4l-36 -58h9q77 0 77 -76q0 -42 -28 -67t-75 -25q-42 0 -107 23l25 51q51 -22 76 -22q18 0 29.5 10.5t11.5 26.5
q0 22 -15.5 31.5t-51.5 9.5h-31l58 97q-56 9 -96 26q-88 40 -139.5 125.5t-51.5 191.5q0 145 95 242t237 97q63 0 124 -22q38 -14 76 -41z" />
    <glyph glyph-name="Egrave" unicode="&#xc8;" horiz-adv-x="539" 
d="M362 715h-69l-113 118h88zM489 0h-380v660h371v-69h-289v-220h239v-69h-239v-233h298v-69z" />
    <glyph glyph-name="Eacute" unicode="&#xc9;" horiz-adv-x="539" 
d="M459 833l-113 -118h-70l95 118h88zM489 0h-380v660h371v-69h-289v-220h239v-69h-239v-233h298v-69z" />
    <glyph glyph-name="Ecircumflex" unicode="&#xca;" horiz-adv-x="539" 
d="M456 696h-71l-75 67l-76 -67h-67l111 117h63zM489 0h-380v660h371v-69h-289v-220h239v-69h-239v-233h298v-69z" />
    <glyph glyph-name="Edieresis" unicode="&#xcb;" horiz-adv-x="539" 
d="M451 761q0 -21 -14.5 -36t-35.5 -15t-35.5 15t-14.5 36t14.5 35.5t35.5 14.5t35.5 -14.5t14.5 -35.5zM266 761q0 -21 -15 -36t-35 -15q-21 0 -36 15t-15 36t15 35.5t36 14.5q20 0 35 -14.5t15 -35.5zM489 0h-380v660h371v-69h-289v-220h239v-69h-239v-233h298v-69z" />
    <glyph glyph-name="Igrave" unicode="&#xcc;" horiz-adv-x="300" 
d="M210 715h-69l-113 118h88zM191 0h-82v660h82v-660z" />
    <glyph glyph-name="Iacute" unicode="&#xcd;" horiz-adv-x="300" 
d="M278 833l-113 -118h-69l94 118h88zM191 0h-82v660h82v-660z" />
    <glyph glyph-name="Icircumflex" unicode="&#xce;" horiz-adv-x="300" 
d="M300 696h-70l-76 67l-75 -67h-68l112 117h63zM191 0h-82v660h82v-660z" />
    <glyph glyph-name="Idieresis" unicode="&#xcf;" horiz-adv-x="300" 
d="M279 758q0 -20 -14.5 -35t-35.5 -15t-35.5 15t-14.5 35q0 21 14.5 36t35.5 15t35.5 -15t14.5 -36zM127 758q0 -20 -14.5 -35t-35.5 -15t-35.5 15t-14.5 35q0 21 14.5 36t35.5 15t35.5 -15t14.5 -36zM191 0h-82v660h82v-660z" />
    <glyph glyph-name="Eth" unicode="&#xd0;" horiz-adv-x="711" 
d="M661 333q0 -136 -89 -237q-45 -52 -101.5 -74t-142.5 -22h-219v323h-119v59h119v278h220q145 0 238.5 -92t93.5 -235zM575 334q0 110 -73.5 183.5t-185.5 73.5h-125v-209h128v-59h-128v-254h125q65 0 105.5 14t72.5 46q36 38 58.5 94.5t22.5 110.5z" />
    <glyph glyph-name="Ntilde" unicode="&#xd1;" horiz-adv-x="759" 
d="M581 749q-26 -25 -56 -37q-36 -16 -70 -16q-36 0 -87 27q-37 19 -56 19t-35 -8q-18 -8 -45 -26l-32 44q41 26 61 35q30 15 62 15q8 0 12 -1q16 -1 27 -6t51 -26q31 -17 52 -17q20 0 36 7t49 30zM650 -6h-95l-333 515q-9 15 -13 23q-8 13 -8 15q-5 9 -10 25v-572h-82v660
h107l327 -503q3 -4 9 -16q1 -3 2.5 -6t2 -5.5t2.5 -7l5 -11.5q0 -1 1.5 -4.5t2.5 -5.5v559h82v-666z" />
    <glyph glyph-name="Ograve" unicode="&#xd2;" horiz-adv-x="763" 
d="M410 715h-69l-113 118h88zM713 330q0 -149 -93.5 -246t-237.5 -97t-238 97t-94 246q0 148 94 245t238 97t237.5 -96.5t93.5 -245.5zM623 330q0 108 -71.5 187t-169.5 79t-170 -79t-72 -187q0 -109 72 -187.5t170 -78.5t169.5 79t71.5 187z" />
    <glyph glyph-name="Oacute" unicode="&#xd3;" horiz-adv-x="763" 
d="M526 833l-113 -118h-69l94 118h88zM713 330q0 -149 -93.5 -246t-237.5 -97t-238 97t-94 246q0 148 94 245t238 97t237.5 -96.5t93.5 -245.5zM623 330q0 108 -71.5 187t-169.5 79t-170 -79t-72 -187q0 -109 72 -187.5t170 -78.5t169.5 79t71.5 187z" />
    <glyph glyph-name="Ocircumflex" unicode="&#xd4;" horiz-adv-x="763" 
d="M527 696h-71l-75 67l-76 -67h-68l112 117h63zM713 330q0 -149 -93.5 -246t-237.5 -97t-238 97t-94 246q0 148 94 245t238 97t237.5 -96.5t93.5 -245.5zM623 330q0 108 -71.5 187t-169.5 79t-170 -79t-72 -187q0 -109 72 -187.5t170 -78.5t169.5 79t71.5 187z" />
    <glyph glyph-name="Otilde" unicode="&#xd5;" horiz-adv-x="763" 
d="M574 745q-26 -25 -56 -37q-36 -16 -70 -16q-36 0 -87 27q-37 19 -56 19t-35 -8q-18 -8 -45 -26l-32 44q41 26 61 35q30 15 62 15q8 0 12 -1q16 -1 27 -6t51 -26q31 -17 52 -17q20 0 36 7t49 30zM713 330q0 -149 -93.5 -246t-237.5 -97t-238 97t-94 246q0 148 94 245
t238 97t237.5 -96.5t93.5 -245.5zM623 330q0 108 -71.5 187t-169.5 79t-170 -79t-72 -187q0 -109 72 -187.5t170 -78.5t169.5 79t71.5 187z" />
    <glyph glyph-name="Odieresis" unicode="&#xd6;" horiz-adv-x="763" 
d="M535 760q0 -21 -14.5 -36t-35.5 -15t-35.5 15t-14.5 36q0 20 14.5 35t35.5 15t35.5 -15t14.5 -35zM333 760q0 -21 -15 -36t-35 -15q-21 0 -36 15t-15 36q0 20 15 35t36 15q20 0 35 -15t15 -35zM713 330q0 -149 -93.5 -246t-237.5 -97t-238 97t-94 246q0 148 94 245
t238 97t237.5 -96.5t93.5 -245.5zM623 330q0 108 -71.5 187t-169.5 79t-170 -79t-72 -187q0 -109 72 -187.5t170 -78.5t169.5 79t71.5 187z" />
    <glyph glyph-name="multiply" unicode="&#xd7;" 
d="M514 29l-42 -41l-197 196l-197 -197l-42 42l197 197l-197 197l42 42l197 -197l197 197l42 -42l-197 -197z" />
    <glyph glyph-name="Oslash" unicode="&#xd8;" horiz-adv-x="768" 
d="M718 330q0 -151 -94 -247t-242 -96q-69 0 -108 12t-93 56l-11 9l-99 -114l-37 31l102 118q-48 69 -64.5 114.5t-16.5 111.5q0 153 93.5 250t240.5 97q61 0 97 -10t90 -46l6 -4l93 105l37 -32l-92 -105q98 -103 98 -250zM526 546q-62 55 -142 55q-96 0 -167.5 -80
t-71.5 -189q0 -42 14 -87.5t37 -76.5zM628 329q0 50 -18.5 100.5t-49.5 83.5l-332 -383q81 -70 159 -70q98 0 169.5 80t71.5 189z" />
    <glyph glyph-name="Ugrave" unicode="&#xd9;" horiz-adv-x="700" 
d="M418 715h-69l-114 118h88zM608 226q0 -66 -17.5 -108t-58.5 -76q-75 -61 -181 -61q-107 0 -182 61q-41 34 -59 76.5t-18 107.5v434h82v-409q0 -62 7 -88t31 -52q51 -57 138 -57t138 57q24 26 31 52t7 88v409h82v-434z" />
    <glyph glyph-name="Uacute" unicode="&#xda;" horiz-adv-x="700" 
d="M492 833l-113 -118h-69l94 118h88zM608 226q0 -66 -17.5 -108t-58.5 -76q-75 -61 -181 -61q-107 0 -182 61q-41 34 -59 76.5t-18 107.5v434h82v-409q0 -62 7 -88t31 -52q51 -57 138 -57t138 57q24 26 31 52t7 88v409h82v-434z" />
    <glyph glyph-name="Ucircumflex" unicode="&#xdb;" horiz-adv-x="700" 
d="M503 696h-71l-75 67l-76 -67h-68l112 117h63zM608 226q0 -66 -17.5 -108t-58.5 -76q-75 -61 -181 -61q-107 0 -182 61q-41 34 -59 76.5t-18 107.5v434h82v-409q0 -62 7 -88t31 -52q51 -57 138 -57t138 57q24 26 31 52t7 88v409h82v-434z" />
    <glyph glyph-name="Udieresis" unicode="&#xdc;" horiz-adv-x="700" 
d="M508 762q0 -21 -14.5 -35.5t-35.5 -14.5t-35.5 14.5t-14.5 35.5t14.5 35.5t35.5 14.5t35.5 -14.5t14.5 -35.5zM306 762q0 -21 -14.5 -35.5t-35.5 -14.5t-35.5 14.5t-14.5 35.5t14.5 35.5t35.5 14.5t35.5 -14.5t14.5 -35.5zM608 226q0 -66 -17.5 -108t-58.5 -76
q-75 -61 -181 -61q-107 0 -182 61q-41 34 -59 76.5t-18 107.5v434h82v-409q0 -62 7 -88t31 -52q51 -57 138 -57t138 57q24 26 31 52t7 88v409h82v-434z" />
    <glyph glyph-name="Yacute" unicode="&#xdd;" 
d="M416 803l-113 -118h-70l95 118h88zM542 660l-232 -352v-308h-82v302l-220 358h88l177 -283l182 283h87z" />
    <glyph glyph-name="Thorn" unicode="&#xde;" horiz-adv-x="556" 
d="M528 347q0 -103 -63 -163t-172 -60q-25 0 -102 8v-132h-82v660h82v-118h125q60 0 96.5 -12t64.5 -40q51 -52 51 -143zM443 342q0 66 -37 103q-28 28 -102 28h-113v-272q55 -6 88 -6q54 0 86 13q36 15 57 51t21 83z" />
    <glyph glyph-name="germandbls" unicode="&#xdf;" horiz-adv-x="576" 
d="M555 117q0 -59 -44.5 -94.5t-120.5 -35.5q-42 0 -73.5 10t-80.5 39l33 57q41 -27 67 -36.5t57 -9.5q39 0 63.5 18t24.5 46q0 17 -8 30q-15 21 -44 35q-11 6 -68 33q-59 28 -83.5 55.5t-24.5 66.5t20.5 65t97.5 83q38 29 52 49.5t14 49.5q0 46 -34.5 73t-93.5 27
q-37 0 -67 -15q-33 -17 -45.5 -49.5t-12.5 -104.5v-509h-74v390h-88v44l88 19v75q0 101 52.5 156t149.5 55q92 0 145 -42t53 -116q0 -45 -26 -79.5t-101 -88.5q-32 -24 -45 -41.5t-13 -37.5t22.5 -37.5t84.5 -45.5q50 -22 73 -39t37 -40q13 -24 13 -55z" />
    <glyph glyph-name="agrave" unicode="&#xe0;" horiz-adv-x="476" 
d="M306 497h-69l-113 163h88zM425 50l-18 -63q-46 3 -65.5 17t-22.5 46q-31 -27 -48 -36q-45 -26 -96 -26q-55 0 -88 32.5t-33 86.5q0 102 101 126l157 37v82q0 56 -86 56q-69 0 -69 -39q0 -6 4 -17l-76 -16q-8 14 -8 28q0 45 45 73t118 28q68 0 108 -30.5t40 -82.5v-245
v-33q3 -18 37 -24zM312 113v94l-170 -44q-13 -25 -13 -49q0 -27 16.5 -43t44.5 -16q25 0 49 11.5t73 46.5z" />
    <glyph glyph-name="aacute" unicode="&#xe1;" horiz-adv-x="476" 
d="M381 660l-113 -163h-69l94 163h88zM425 50l-18 -63q-46 3 -65.5 17t-22.5 46q-31 -27 -48 -36q-45 -26 -96 -26q-55 0 -88 32.5t-33 86.5q0 102 101 126l157 37v82q0 56 -86 56q-69 0 -69 -39q0 -6 4 -17l-76 -16q-8 14 -8 28q0 45 45 73t118 28q68 0 108 -30.5t40 -82.5
v-245v-33q3 -18 37 -24zM312 113v94l-170 -44q-13 -25 -13 -49q0 -27 16.5 -43t44.5 -16q25 0 49 11.5t73 46.5z" />
    <glyph glyph-name="acircumflex" unicode="&#xe2;" horiz-adv-x="476" 
d="M388 497h-71l-75 107l-76 -107h-68l112 163h63zM425 50l-18 -63q-46 3 -65.5 17t-22.5 46q-31 -27 -48 -36q-45 -26 -96 -26q-55 0 -88 32.5t-33 86.5q0 102 101 126l157 37v82q0 56 -86 56q-69 0 -69 -39q0 -6 4 -17l-76 -16q-8 14 -8 28q0 45 45 73t118 28
q68 0 108 -30.5t40 -82.5v-245v-33q3 -18 37 -24zM312 113v94l-170 -44q-13 -25 -13 -49q0 -27 16.5 -43t44.5 -16q25 0 49 11.5t73 46.5z" />
    <glyph glyph-name="atilde" unicode="&#xe3;" horiz-adv-x="476" 
d="M436 578q-26 -25 -56 -37q-36 -16 -70 -16q-36 0 -87 27q-37 19 -56 19t-35 -8q-18 -8 -45 -26l-32 44q41 26 61 35q30 15 62 15q8 0 12 -1q16 -1 27 -6t51 -26q31 -17 52 -17q20 0 36 7t49 30zM425 50l-18 -63q-46 3 -65.5 17t-22.5 46q-31 -27 -48 -36q-45 -26 -96 -26
q-55 0 -88 32.5t-33 86.5q0 102 101 126l157 37v82q0 56 -86 56q-69 0 -69 -39q0 -6 4 -17l-76 -16q-8 14 -8 28q0 45 45 73t118 28q68 0 108 -30.5t40 -82.5v-245v-33q3 -18 37 -24zM312 113v94l-170 -44q-13 -25 -13 -49q0 -27 16.5 -43t44.5 -16q25 0 49 11.5t73 46.5z
" />
    <glyph glyph-name="adieresis" unicode="&#xe4;" horiz-adv-x="476" 
d="M370 573q0 -20 -15 -35t-35 -15q-21 0 -36 15t-15 35q0 21 15 36t36 15q20 0 35 -15t15 -36zM195 573q0 -20 -15 -35t-35 -15q-21 0 -36 15t-15 35q0 21 15 36t36 15q20 0 35 -15t15 -36zM425 50l-18 -63q-46 3 -65.5 17t-22.5 46q-31 -27 -48 -36q-45 -26 -96 -26
q-55 0 -88 32.5t-33 86.5q0 102 101 126l157 37v82q0 56 -86 56q-69 0 -69 -39q0 -6 4 -17l-76 -16q-8 14 -8 28q0 45 45 73t118 28q68 0 108 -30.5t40 -82.5v-245v-33q3 -18 37 -24zM312 113v94l-170 -44q-13 -25 -13 -49q0 -27 16.5 -43t44.5 -16q25 0 49 11.5t73 46.5z
" />
    <glyph glyph-name="aring" unicode="&#xe5;" horiz-adv-x="476" 
d="M320 586q0 -33 -23 -56t-56 -23t-56.5 23t-23.5 56t23.5 56.5t56.5 23.5t56 -23.5t23 -56.5zM425 50l-18 -63q-46 3 -65.5 17t-22.5 46q-31 -27 -48 -36q-45 -26 -96 -26q-55 0 -88 32.5t-33 86.5q0 102 101 126l157 37v82q0 56 -86 56q-69 0 -69 -39q0 -6 4 -17l-76 -16
q-8 14 -8 28q0 45 45 73t118 28q68 0 108 -30.5t40 -82.5v-245v-33q3 -18 37 -24zM282 586q0 17 -12 29.5t-29 12.5t-29.5 -12.5t-12.5 -29.5t12.5 -29t29.5 -12t29 12t12 29zM312 113v94l-170 -44q-13 -25 -13 -49q0 -27 16.5 -43t44.5 -16q25 0 49 11.5t73 46.5z" />
    <glyph glyph-name="ae" unicode="&#xe6;" horiz-adv-x="739" 
d="M702 281l-308 -62q1 -73 41.5 -118t105.5 -45q53 0 118 45l30 -59q-49 -31 -84.5 -43t-79.5 -12q-112 0 -170 91q-60 -50 -84 -64q-44 -26 -96 -26q-56 0 -88.5 33t-32.5 91q0 23 6 44q10 34 30.5 50.5t64.5 25.5l157 32v81q0 33 -18.5 47.5t-59.5 14.5q-77 0 -77 -39
q0 -7 4 -16l-76 -16q-8 14 -8 28q0 45 45 73t118 28q56 0 88 -16.5t50 -54.5q14 18 23 26q48 45 130 45q73 0 122 -45t49 -112v-27zM620 327q-14 75 -100 75q-118 0 -126 -120zM330 124q-11 30 -13 46l-4 27l-1 4l-170 -34q-13 -25 -13 -49q0 -30 16 -46.5t45 -16.5
q47 0 140 69z" />
    <glyph glyph-name="ccedilla" unicode="&#xe7;" horiz-adv-x="444" 
d="M431 35q-40 -25 -82 -38q-32 -9 -58 -10l-31 -56q35 0 54.5 -19.5t19.5 -56.5q0 -40 -27 -65.5t-68 -25.5q-33 0 -99 22l25 51q51 -22 77 -22q17 0 28.5 10.5t11.5 26.5q0 22 -15 31.5t-51 9.5h-32l57 94q-198 46 -198 235q0 107 66.5 175t170.5 68q34 0 67 -9
q37 -10 75 -37l-43 -61q-47 39 -102 39q-68 0 -110 -47.5t-42 -124.5q0 -78 42.5 -123.5t115.5 -45.5q59 0 109 38z" />
    <glyph glyph-name="egrave" unicode="&#xe8;" horiz-adv-x="469" 
d="M325 497h-69l-113 163h88zM432 233h-310q0 -83 39.5 -130t108.5 -47q53 0 118 45l30 -59q-50 -32 -85 -43.5t-79 -11.5q-95 0 -153 66t-58 173q0 108 58.5 173.5t155.5 65.5q79 0 127 -51.5t48 -136.5v-44zM350 289q-1 52 -26 80t-72 28q-98 0 -124 -108h222z" />
    <glyph glyph-name="eacute" unicode="&#xe9;" horiz-adv-x="469" 
d="M388 660l-113 -163h-70l95 163h88zM432 233h-310q0 -83 39.5 -130t108.5 -47q53 0 118 45l30 -59q-50 -32 -85 -43.5t-79 -11.5q-95 0 -153 66t-58 173q0 108 58.5 173.5t155.5 65.5q79 0 127 -51.5t48 -136.5v-44zM350 289q-1 52 -26 80t-72 28q-98 0 -124 -108h222z
" />
    <glyph glyph-name="ecircumflex" unicode="&#xea;" horiz-adv-x="469" 
d="M400 497h-69l-75 107l-76 -107h-69l113 163h63zM432 233h-310q0 -83 39.5 -130t108.5 -47q53 0 118 45l30 -59q-50 -32 -85 -43.5t-79 -11.5q-95 0 -153 66t-58 173q0 108 58.5 173.5t155.5 65.5q79 0 127 -51.5t48 -136.5v-44zM350 289q-1 52 -26 80t-72 28
q-98 0 -124 -108h222z" />
    <glyph glyph-name="edieresis" unicode="&#xeb;" horiz-adv-x="469" 
d="M394 572q0 -20 -15 -35t-35 -15q-21 0 -36 15t-15 35q0 21 15 36t36 15q20 0 35 -15t15 -36zM219 572q0 -20 -15 -35t-35 -15q-21 0 -36 15t-15 35q0 21 15 36t36 15q20 0 35 -15t15 -36zM432 233h-310q0 -83 39.5 -130t108.5 -47q53 0 118 45l30 -59q-50 -32 -85 -43.5
t-79 -11.5q-95 0 -153 66t-58 173q0 108 58.5 173.5t155.5 65.5q79 0 127 -51.5t48 -136.5v-44zM350 289q-1 52 -26 80t-72 28q-98 0 -124 -108h222z" />
    <glyph glyph-name="igrave" unicode="&#xec;" horiz-adv-x="247" 
d="M174 497h-69l-113 163h88zM161 0h-75v453h75v-453z" />
    <glyph glyph-name="iacute" unicode="&#xed;" horiz-adv-x="247" 
d="M262 660l-113 -163h-69l94 163h88zM161 0h-75v453h75v-453z" />
    <glyph glyph-name="icircumflex" unicode="&#xee;" horiz-adv-x="247" 
d="M268 497h-69l-75 107l-76 -107h-69l113 163h63zM161 0h-75v453h75v-453z" />
    <glyph glyph-name="idieresis" unicode="&#xef;" horiz-adv-x="247" 
d="M264 573q0 -20 -15 -35t-35 -15q-21 0 -36 15t-15 35q0 21 15 36t36 15q20 0 35 -15t15 -36zM89 573q0 -20 -15 -35t-35 -15q-21 0 -36 15t-15 35q0 21 15 36t36 15q20 0 35 -15t15 -36zM161 0h-75v453h75v-453z" />
    <glyph glyph-name="eth" unicode="&#xf0;" horiz-adv-x="544" 
d="M510 599l-106 -61q76 -114 76 -272q0 -133 -57 -210t-155 -77q-88 0 -145 65.5t-57 165.5q0 82 47 133.5t123 51.5q56 0 113 -23q10 -4 57 -26q-12 60 -24.5 93t-36.5 65l-120 -70l-30 52l111 63q-35 34 -76 48q-33 10 -81 10q-28 0 -53 -3v62q43 4 65 4q129 0 207 -85
l112 65zM407 243q0 19 -1 40q-54 27 -96 38q-38 9 -59 9q-52 0 -85.5 -36t-33.5 -92q0 -66 38.5 -111t95.5 -45q63 0 102 54.5t39 142.5z" />
    <glyph glyph-name="ntilde" unicode="&#xf1;" horiz-adv-x="545" 
d="M472 574q-26 -25 -56 -37q-36 -16 -70 -16q-36 0 -87 27q-37 19 -56 19t-35 -8q-18 -8 -45 -26l-32 44q41 26 61 35q30 15 62 15q8 0 12 -1q16 -1 27 -6t51 -26q31 -17 52 -17q20 0 36 7t49 30zM463 0h-75v321q0 35 -7 53q-11 24 -46 24t-75 -28t-99 -93v-277h-75v453h75
v-95q36 41 62 62q53 45 121 45q119 0 119 -126v-339z" />
    <glyph glyph-name="ograve" unicode="&#xf2;" horiz-adv-x="533" 
d="M327 497h-69l-120 163h88zM490 226q0 -98 -66 -168.5t-157 -70.5q-92 0 -158 70.5t-66 168.5t66 168.5t158 70.5t157.5 -70.5t65.5 -168.5zM408 226q0 72 -41 122t-100 50q-60 0 -101 -50t-41 -122t41 -122t101 -50q59 0 100 50t41 122z" />
    <glyph glyph-name="oacute" unicode="&#xf3;" horiz-adv-x="533" 
d="M400 660l-108 -163h-66l86 163h88zM490 226q0 -98 -66 -168.5t-157 -70.5q-92 0 -158 70.5t-66 168.5t66 168.5t158 70.5t157.5 -70.5t65.5 -168.5zM408 226q0 72 -41 122t-100 50q-60 0 -101 -50t-41 -122t41 -122t101 -50q59 0 100 50t41 122z" />
    <glyph glyph-name="ocircumflex" unicode="&#xf4;" horiz-adv-x="533" 
d="M415 497h-69l-76 107l-75 -107h-69l113 163h63zM490 226q0 -98 -66 -168.5t-157 -70.5q-92 0 -158 70.5t-66 168.5t66 168.5t158 70.5t157.5 -70.5t65.5 -168.5zM408 226q0 72 -41 122t-100 50q-60 0 -101 -50t-41 -122t41 -122t101 -50q59 0 100 50t41 122z" />
    <glyph glyph-name="otilde" unicode="&#xf5;" horiz-adv-x="533" 
d="M449 574q-26 -25 -56 -37q-36 -16 -70 -16q-36 0 -87 27q-37 19 -56 19t-35 -8q-18 -8 -45 -26l-32 44q41 26 61 35q30 15 62 15q8 0 12 -1q16 -1 27 -6t51 -26q31 -17 52 -17q20 0 36 7t49 30zM490 226q0 -98 -66 -168.5t-157 -70.5q-92 0 -158 70.5t-66 168.5t66 168.5
t158 70.5t157.5 -70.5t65.5 -168.5zM408 226q0 72 -41 122t-100 50q-60 0 -101 -50t-41 -122t41 -122t101 -50q59 0 100 50t41 122z" />
    <glyph glyph-name="odieresis" unicode="&#xf6;" horiz-adv-x="533" 
d="M409 572q0 -20 -15 -35t-35 -15q-21 0 -36 15t-15 35q0 21 15 36t36 15q20 0 35 -15t15 -36zM234 572q0 -20 -15 -35t-35 -15q-21 0 -36 15t-15 35q0 21 15 36t36 15q20 0 35 -15t15 -36zM490 226q0 -98 -66 -168.5t-157 -70.5q-92 0 -158 70.5t-66 168.5t66 168.5
t158 70.5t157.5 -70.5t65.5 -168.5zM408 226q0 72 -41 122t-100 50q-60 0 -101 -50t-41 -122t41 -122t101 -50q59 0 100 50t41 122z" />
    <glyph glyph-name="divide" unicode="&#xf7;" 
d="M335 427q0 -24 -17 -41t-41 -17q-25 0 -42 17t-17 41q0 25 17 42t42 17q24 0 41 -17t17 -42zM525 208h-500v57h500v-57zM335 48q0 -25 -17 -42t-41 -17q-25 0 -42 17t-17 42q0 24 17 41t42 17q24 0 41 -17t17 -41z" />
    <glyph glyph-name="oslash" unicode="&#xf8;" horiz-adv-x="533" 
d="M503 469l-73 -88q54 -66 54 -156q0 -98 -64 -168t-155 -70q-42 0 -68.5 8.5t-63.5 36.5l-4 3l-70 -82l-29 26l72 82q-65 70 -65 166t67 167t158 71q86 0 140 -54l71 82zM355 356q-36 42 -93 42q-59 0 -101.5 -50.5t-42.5 -121.5q0 -54 32 -109zM403 235q0 41 -25 89
l-201 -237q43 -32 83 -32q58 0 100.5 53t42.5 127z" />
    <glyph glyph-name="ugrave" unicode="&#xf9;" horiz-adv-x="541" 
d="M327 497h-69l-113 163h88zM459 0h-76v94q-78 -108 -180 -108q-121 0 -121 127v340h75v-321q0 -42 12.5 -60.5t41.5 -18.5q36 0 84.5 34.5t87.5 88.5v277h76v-453z" />
    <glyph glyph-name="uacute" unicode="&#xfa;" horiz-adv-x="541" 
d="M409 660l-114 -163h-69l95 163h88zM459 0h-76v94q-78 -108 -180 -108q-121 0 -121 127v340h75v-321q0 -42 12.5 -60.5t41.5 -18.5q36 0 84.5 34.5t87.5 88.5v277h76v-453z" />
    <glyph glyph-name="ucircumflex" unicode="&#xfb;" horiz-adv-x="541" 
d="M415 497h-69l-76 107l-75 -107h-69l113 163h63zM459 0h-76v94q-78 -108 -180 -108q-121 0 -121 127v340h75v-321q0 -42 12.5 -60.5t41.5 -18.5q36 0 84.5 34.5t87.5 88.5v277h76v-453z" />
    <glyph glyph-name="udieresis" unicode="&#xfc;" horiz-adv-x="541" 
d="M415 572q0 -20 -15 -35t-35 -15q-21 0 -36 15t-15 35q0 21 15 36t36 15q20 0 35 -15t15 -36zM240 572q0 -20 -15 -35t-35 -15q-21 0 -36 15t-15 35q0 21 15 36t36 15q20 0 35 -15t15 -36zM459 0h-76v94q-78 -108 -180 -108q-121 0 -121 127v340h75v-321q0 -42 12.5 -60.5
t41.5 -18.5q36 0 84.5 34.5t87.5 88.5v277h76v-453z" />
    <glyph glyph-name="yacute" unicode="&#xfd;" horiz-adv-x="405" 
d="M351 660l-113 -163h-69l94 163h88zM396 453l-178 -478q-30 -81 -63 -133q-25 -41 -68 -95l-60 46q55 61 86 117q30 54 63 140l-168 403h84l109 -277l15 -44l10 44l93 277h77z" />
    <glyph glyph-name="thorn" unicode="&#xfe;" horiz-adv-x="543" 
d="M500 239q0 -109 -65 -180t-166 -71q-67 0 -108 31v-258h-75v968h75v-333q60 70 149 70q84 0 137 -63.5t53 -163.5zM419 238q0 68 -34 112.5t-87 44.5q-42 0 -88 -31q-23 -17 -49 -50v-157q0 -42 9 -59q22 -39 91 -39q72 0 115 48.5t43 130.5z" />
    <glyph glyph-name="ydieresis" unicode="&#xff;" horiz-adv-x="405" 
d="M344 547q0 -20 -15 -35t-35 -15q-21 0 -36 15t-15 35q0 21 15 36t36 15q20 0 35 -15t15 -36zM169 547q0 -20 -15 -35t-35 -15q-21 0 -36 15t-15 35q0 21 15 36t36 15q20 0 35 -15t15 -36zM396 453l-178 -478q-30 -81 -63 -133q-25 -41 -68 -95l-60 46q55 61 86 117
q30 54 63 140l-168 403h84l109 -277l15 -44l10 44l93 277h77z" />
    <glyph glyph-name="dotlessi" unicode="&#x131;" horiz-adv-x="247" 
d="M161 0h-75v453h75v-453z" />
    <glyph glyph-name="Lslash" unicode="&#x141;" horiz-adv-x="495" 
d="M486 0h-377v298l-92 -53l-30 51l122 70v294h82v-247l81 47l30 -51l-111 -64v-276h295v-69z" />
    <glyph glyph-name="lslash" unicode="&#x142;" horiz-adv-x="239" 
d="M277 409l-120 -69v-340h-75v297l-90 -52l-30 51l120 69v364h75v-321l90 52z" />
    <glyph glyph-name="OE" unicode="&#x152;" horiz-adv-x="918" 
d="M868 0h-384q-76 -13 -116 -13q-134 0 -226 99.5t-92 243.5q0 143 92.5 243t225.5 100q41 0 116 -13h371v-69h-289v-220h239v-69h-239v-233h302v-69zM484 82v497q-53 21 -98 21q-103 0 -174.5 -78.5t-71.5 -191.5t72 -191.5t175 -78.5q47 0 97 22z" />
    <glyph glyph-name="oe" unicode="&#x153;" horiz-adv-x="835" 
d="M798 233h-308v-18q0 -71 40.5 -117t104.5 -46q28 0 55 9q34 11 64 40l32 -63q-56 -33 -88.5 -43.5t-76.5 -10.5q-42 0 -74 11q-33 11 -54.5 29.5t-47.5 58.5q-69 -96 -178 -96q-93 0 -158.5 70t-65.5 168q0 100 66.5 170t160.5 70q110 0 178 -100q15 19 29 35
q55 61 147 61q79 0 126.5 -50.5t47.5 -133.5v-44zM717 289q-6 54 -30 79.5t-70 25.5q-48 0 -80.5 -28.5t-39.5 -76.5h220zM408 223q0 71 -42 122.5t-100 51.5t-99.5 -49.5t-41.5 -120.5q0 -76 39 -124.5t99 -48.5q61 0 103 49t42 120z" />
    <glyph glyph-name="Scaron" unicode="&#x160;" horiz-adv-x="534" 
d="M430 821l-112 -134h-63l-114 134h70l76 -77l75 77h68zM480 616l-38 -68q-43 25 -69 34q-44 14 -91 14q-56 0 -91 -25.5t-35 -67.5q0 -37 31 -64t132 -81q70 -37 104 -67q51 -43 51 -120q0 -85 -58.5 -134.5t-158.5 -49.5q-67 0 -122 22q-30 12 -85 49l42 65
q47 -32 76 -43q45 -17 95 -17q59 0 92 26.5t33 73.5q0 30 -10 47q-17 32 -56 54l-110 59q-74 40 -107.5 81t-33.5 92q0 79 60 127t158 48q62 0 111 -16q33 -11 80 -39z" />
    <glyph glyph-name="scaron" unicode="&#x161;" horiz-adv-x="447" 
d="M372 652l-112 -164h-63l-114 164h70l76 -107l75 107h68zM387 117q0 -61 -42 -95.5t-116 -34.5q-29 0 -63 6q-51 10 -107 38l31 63q30 -16 34 -18q53 -25 104 -25q35 0 57.5 17t22.5 43q0 18 -9 31q-14 20 -37 33.5t-83 38.5q-66 28 -92 55t-26 68q0 59 46 93.5t126 34.5
q34 0 58 -5q39 -7 88 -34l-37 -61q-36 22 -65 30t-52 8q-38 0 -61 -15.5t-23 -41.5q0 -17 11 -28q14 -14 33 -24t79 -35q72 -30 97.5 -59.5t25.5 -82.5z" />
    <glyph glyph-name="Ydieresis" unicode="&#x178;" 
d="M420 758q0 -21 -15 -36t-36 -15q-20 0 -35 15t-15 36q0 20 15 35t35 15q21 0 36 -15t15 -35zM218 758q0 -21 -15 -36t-36 -15t-35.5 15t-14.5 36q0 20 14.5 35t35.5 15t36 -15t15 -35zM542 660l-232 -352v-308h-82v302l-220 358h88l177 -283l182 283h87z" />
    <glyph glyph-name="Zcaron" unicode="&#x17d;" horiz-adv-x="595" 
d="M440 821l-112 -134h-63l-114 134h70l76 -77l75 77h68zM554 0h-512v38l382 553h-382v69h494v-44l-382 -547h400v-69z" />
    <glyph glyph-name="zcaron" unicode="&#x17e;" horiz-adv-x="460" 
d="M384 652l-112 -164h-63l-114 164h70l76 -107l75 107h68zM422 0h-390v38l277 348h-264v67h377v-32l-281 -354h281v-67z" />
    <glyph glyph-name="florin" unicode="&#x192;" horiz-adv-x="576" 
d="M615 652l-57 -37q-16 27 -30.5 36t-41.5 9q-48 0 -82 -34q-17 -18 -25 -37t-28 -88l-14 -49h102l-14 -55h-102l-114 -431q-19 -72 -35.5 -105t-45.5 -59q-52 -46 -126 -46q-94 0 -126 78l56 37q14 -26 29.5 -36t42.5 -10q48 0 82 36q19 19 28 40.5t26 82.5l111 413h-84
l14 55h83l18 68q18 68 35 102t46 61q52 47 126 47q49 0 74 -15.5t52 -62.5z" />
    <glyph glyph-name="circumflex" unicode="&#x2c6;" horiz-adv-x="338" 
d="M352 497h-71l-75 107l-76 -107h-67l111 163h63z" />
    <glyph glyph-name="caron" unicode="&#x2c7;" horiz-adv-x="338" 
d="M312 652l-112 -164h-63l-114 164h70l76 -107l75 107h68z" />
    <glyph glyph-name="breve" unicode="&#x2d8;" horiz-adv-x="352" 
d="M336 660q-10 -45 -19.5 -68.5t-29.5 -47.5q-44 -54 -111 -54q-64 0 -111 54q-19 23 -29 46.5t-20 69.5h63q26 -107 97 -107t97 107h63z" />
    <glyph glyph-name="dotaccent" unicode="&#x2d9;" horiz-adv-x="234" 
d="M169 572q0 -20 -15 -35t-35 -15q-21 0 -36 15t-15 35q0 21 15 36t36 15q20 0 35 -15t15 -36z" />
    <glyph glyph-name="ring" unicode="&#x2da;" horiz-adv-x="243" 
d="M201 574q0 -33 -23 -56t-56 -23t-56.5 23t-23.5 56t23.5 56.5t56.5 23.5t56 -23.5t23 -56.5zM163 574q0 17 -12 29.5t-29 12.5t-29.5 -12.5t-12.5 -29.5t12.5 -29t29.5 -12t29 12t12 29z" />
    <glyph glyph-name="ogonek" unicode="&#x2db;" horiz-adv-x="252" 
d="M171 -177q-22 -15 -45 -15q-44 0 -44 50q0 42 42 122l10 19h34q-16 -41 -17 -44q-9 -29 -13 -49z" />
    <glyph glyph-name="tilde" unicode="&#x2dc;" horiz-adv-x="454" 
d="M406 575q-26 -25 -56 -37q-36 -16 -70 -16q-36 0 -87 27q-37 19 -56 19t-35 -8q-18 -8 -45 -26l-32 44q41 26 61 35q30 15 62 15q8 0 12 -1q16 -1 27 -6t51 -26q31 -17 52 -17q20 0 36 7t49 30z" />
    <glyph glyph-name="hungarumlaut" unicode="&#x2dd;" horiz-adv-x="383" 
d="M365 660l-113 -163h-69l94 163h88zM228 660l-113 -163h-70l95 163h88z" />
    <glyph glyph-name="endash" unicode="&#x2013;" horiz-adv-x="500" 
d="M500 208h-500v57h500v-57z" />
    <glyph glyph-name="emdash" unicode="&#x2014;" horiz-adv-x="1000" 
d="M1000 208h-1000v57h1000v-57z" />
    <glyph glyph-name="quoteleft" unicode="&#x2018;" horiz-adv-x="252" 
d="M191 433q-28 -18 -58 -18q-58 0 -58 64q0 23 8 52q7 25 47 104l13 25h44q-11 -26 -22 -57q-13 -41 -17 -63z" />
    <glyph glyph-name="quoteright" unicode="&#x2019;" horiz-adv-x="252" 
d="M177 608q0 -76 -66 -180h-50q17 27 29 61q9 26 15 59l-44 107q35 17 59 17q57 0 57 -64z" />
    <glyph glyph-name="quotesinglbase" unicode="&#x201a;" horiz-adv-x="252" 
d="M176 36q0 -23 -8 -53q-13 -42 -46 -104l-13 -24h-44q11 25 22 57q10 30 17 62l-43 108q27 18 58 18q57 0 57 -64z" />
    <glyph glyph-name="quotedblleft" unicode="&#x201c;" horiz-adv-x="437" 
d="M376 433q-35 -17 -59 -17q-58 0 -58 64q0 74 66 180h51q-18 -27 -29 -61q-9 -26 -15 -59zM192 433q-34 -17 -59 -17q-58 0 -58 64q0 73 66 180h51q-16 -25 -29 -61q-9 -27 -15 -59z" />
    <glyph glyph-name="quotedblright" unicode="&#x201d;" horiz-adv-x="437" 
d="M361 608q0 -76 -66 -180h-50q19 28 29 61q6 17 15 59l-44 107q33 17 59 17q57 0 57 -64zM177 608q0 -76 -66 -180h-50q17 27 29 61q9 26 15 59l-44 107q35 17 59 17q57 0 57 -64z" />
    <glyph glyph-name="quotedblbase" unicode="&#x201e;" horiz-adv-x="437" 
d="M361 35q0 -75 -66 -179h-50q19 29 29 60q4 14 15 59l-44 107q35 18 59 18q57 0 57 -65zM177 35q0 -77 -66 -179h-50q18 28 29 60q8 21 15 59l-44 107q35 18 59 18q57 0 57 -65z" />
    <glyph glyph-name="dagger" unicode="&#x2020;" horiz-adv-x="573" 
d="M514 389l-174 14v63l174 12v-89zM330 660l-11 -173h-65l-12 173h88zM233 403l-174 -14v89l174 -12v-63zM325 -248h-77v455l6 173h65l6 -173v-455z" />
    <glyph glyph-name="daggerdbl" unicode="&#x2021;" horiz-adv-x="573" 
d="M514 389l-174 14v63l174 12v-89zM330 660l-11 -173h-65l-12 173h88zM233 403l-174 -14v89l174 -12v-63zM325 206l-6 -175h-65l-6 175l6 174h65zM514 -66l-174 12v63l174 14v-89zM233 -54l-174 -12v89l174 -14v-63zM330 -248h-88l12 173h65z" />
    <glyph glyph-name="bullet" unicode="&#x2022;" horiz-adv-x="352" 
d="M293 231q0 -49 -34 -83t-83 -34t-83 34t-34 83t34 83t83 34t83 -34t34 -83z" />
    <glyph glyph-name="ellipsis" unicode="&#x2026;" horiz-adv-x="750" 
d="M690 45q0 -23 -16.5 -39.5t-40.5 -16.5q-23 0 -39.5 16.5t-16.5 39.5q0 24 16.5 40.5t39.5 16.5q24 0 40.5 -16.5t16.5 -40.5zM440 45q0 -23 -16.5 -39.5t-40.5 -16.5q-23 0 -39.5 16.5t-16.5 39.5q0 24 16.5 40.5t39.5 16.5q24 0 40.5 -16.5t16.5 -40.5zM181 45
q0 -23 -16.5 -39.5t-39.5 -16.5t-40 16.5t-17 39.5q0 24 17 40.5t40 16.5t39.5 -16.5t16.5 -40.5z" />
    <glyph glyph-name="perthousand" unicode="&#x2030;" horiz-adv-x="1234" 
d="M1200 162q0 -72 -51.5 -123.5t-123.5 -51.5q-73 0 -124 51.5t-51 123.5q0 73 51 124t124 51q72 0 123.5 -51t51.5 -124zM816 162q0 -72 -51.5 -123.5t-123.5 -51.5q-73 0 -124 51.5t-51 123.5q0 73 51 124t124 51q72 0 123.5 -51t51.5 -124zM744 692l-572 -736h-69
l572 736h69zM384 495q0 -73 -51 -124t-124 -51q-72 0 -123.5 51t-51.5 124t51.5 124.5t123.5 51.5q73 0 124 -51.5t51 -124.5zM1140 162q0 48 -34 81.5t-81 33.5q-48 0 -81.5 -33.5t-33.5 -81.5q0 -47 33.5 -80.5t81.5 -33.5q47 0 81 33.5t34 80.5zM755 162q0 48 -33.5 81.5
t-80.5 33.5q-48 0 -81.5 -33.5t-33.5 -81.5q0 -47 33.5 -80.5t81.5 -33.5q47 0 80.5 33.5t33.5 80.5zM324 495q0 47 -33.5 81t-81.5 34q-47 0 -80.5 -34t-33.5 -81q0 -48 33.5 -81.5t80.5 -33.5q48 0 81.5 33.5t33.5 81.5z" />
    <glyph glyph-name="guilsinglleft" unicode="&#x2039;" horiz-adv-x="321" 
d="M266 38l-226 188l226 189v-82l-132 -107l132 -107v-81z" />
    <glyph glyph-name="guilsinglright" unicode="&#x203a;" horiz-adv-x="321" 
d="M281 226l-227 -188v81l133 107l-133 107v82z" />
    <glyph glyph-name="fraction" unicode="&#x2044;" horiz-adv-x="652" 
d="M653 685l-565 -729h-89l566 729h88z" />
    <glyph glyph-name="Euro" unicode="&#x20ac;" horiz-adv-x="497" 
d="M466 38q-77 -52 -156 -52q-84 0 -143.5 47.5t-79.5 128.5h-68v41l59 17h1q-3 33 2 68h-62v41l46 10.5t25 6t6 1.5q26 73 84 115t135 42t142 -50l-43 -66q-46 42 -102 42q-90 0 -130 -83h215v-59h-234q-5 -35 -2 -68l236 1v-59h-224q36 -101 145 -101q58 0 109 41z" />
    <glyph glyph-name="trademark" unicode="&#x2122;" horiz-adv-x="863" 
d="M787 339h-62v271h-7l-6 -44l-82 -227h-88l-75 221l-6 44h-7v-265h-69v321h113l82 -239l6 -25h7l6 25l82 239h106v-321zM316 604h-101v-265h-69v265h-100v56h270v-56z" />
    <glyph glyph-name="minus" unicode="&#x2212;" horiz-adv-x="461" 
d="M440 203h-418v59h418v-59z" />
    <glyph glyph-name="fi" unicode="&#xfb01;" horiz-adv-x="497" 
d="M453 685l-32 -63q-76 48 -131 48q-114 0 -114 -161v-56h258v-453h-76v390h-182v-390h-75v390h-76v44l76 19v75q0 96 53 153.5t141 57.5q39 0 75 -12q32 -11 83 -42z" />
    <glyph glyph-name="fl" unicode="&#xfb02;" horiz-adv-x="522" 
d="M440 0h-75v654q-44 15 -74 15q-115 0 -115 -160v-56h125v-63h-125v-390h-75v390h-76v44l76 19v75q0 97 53 154t142 57q35 0 69 -10h75v-729z" />
    </font>
</defs>
</svg>
