<?xml version="1.0" encoding="UTF-8" standalone="no"?>
<svg
   xmlns:dc="http://purl.org/dc/elements/1.1/"
   xmlns:cc="http://creativecommons.org/ns#"
   xmlns:rdf="http://www.w3.org/1999/02/22-rdf-syntax-ns#"
   xmlns:svg="http://www.w3.org/2000/svg"
   xmlns="http://www.w3.org/2000/svg"
   viewBox="0 0 793.70001 561.25867"
   height="561.25867"
   width="793.70001"
   xml:space="preserve"
   version="1.1"
   id="svg2"><metadata
     id="metadata8"><rdf:RDF><cc:Work
         rdf:about=""><dc:format>image/svg+xml</dc:format><dc:type
           rdf:resource="http://purl.org/dc/dcmitype/StillImage" /></cc:Work></rdf:RDF></metadata><defs
     id="defs6"><clipPath
       id="clipPath16"
       clipPathUnits="userSpaceOnUse"><path
         id="path18"
         d="m 0,420.944 595.275,0 L 595.275,0 0,0 0,420.944 Z" /></clipPath></defs><g
     transform="matrix(1.3333333,0,0,-1.3333333,0,561.25867)"
     id="g10"><g
       id="g12"><g
         clip-path="url(#clipPath16)"
         id="g14"><g
           transform="translate(186.7539,198.8784)"
           id="g20"><path
             id="path22"
             style="fill:#295198;fill-opacity:1;fill-rule:nonzero;stroke:none"
             d="m 0,0 c 0,-2.533 -0.323,-4.769 -0.973,-6.702 -0.645,-1.934 -1.556,-3.611 -2.728,-5.027 -1.169,-1.416 -2.556,-2.6 -4.153,-3.552 -1.599,-0.954 -3.343,-1.716 -5.231,-2.29 -1.888,-0.572 -3.887,-0.979 -5.993,-1.226 -2.107,-0.244 -4.252,-0.366 -6.427,-0.366 -2.867,0 -5.513,0.21 -7.937,0.633 -2.426,0.422 -4.707,1.089 -6.841,2.002 -2.138,0.913 -4.191,2.09 -6.162,3.532 -1.97,1.445 -3.933,3.201 -5.888,5.273 l 8.432,8.457 c 0.771,-1.88 1.832,-3.615 3.183,-5.21 1.351,-1.591 2.831,-2.961 4.446,-4.106 1.611,-1.143 3.284,-2.043 5.02,-2.695 1.737,-0.655 3.375,-0.982 4.919,-0.982 1.818,0 3.527,0.127 5.126,0.389 1.599,0.259 2.991,0.685 4.176,1.286 1.184,0.599 2.114,1.395 2.79,2.391 0.676,0.993 1.012,2.241 1.012,3.74 0,1.142 -0.263,2.124 -0.786,2.94 -0.523,0.818 -1.205,1.518 -2.045,2.105 -0.84,0.586 -1.798,1.083 -2.873,1.493 -1.076,0.407 -2.171,0.754 -3.289,1.04 -1.114,0.285 -2.209,0.544 -3.283,0.777 -1.076,0.231 -2.025,0.469 -2.854,0.714 -1.624,0.463 -3.321,0.96 -5.083,1.492 -1.765,0.53 -3.502,1.138 -5.209,1.818 -1.711,0.681 -3.33,1.465 -4.857,2.349 -1.53,0.884 -2.872,1.936 -4.032,3.147 -1.157,1.211 -2.08,2.615 -2.769,4.209 -0.689,1.594 -1.035,3.425 -1.035,5.495 0,2.478 0.312,4.679 0.931,6.599 0.621,1.92 1.495,3.589 2.628,5.005 1.129,1.416 2.464,2.609 4.009,3.577 1.541,0.964 3.237,1.74 5.084,2.329 1.845,0.583 3.809,1.006 5.889,1.264 2.08,0.259 4.21,0.39 6.387,0.39 2.978,0 5.685,-0.272 8.123,-0.818 2.439,-0.546 4.693,-1.322 6.759,-2.327 2.065,-1.01 3.963,-2.215 5.683,-3.617 1.723,-1.403 3.344,-2.964 4.859,-4.68 l -8.434,-8.457 c -0.662,1.961 -1.579,3.73 -2.748,5.312 -1.173,1.578 -2.474,2.936 -3.907,4.066 -1.434,1.129 -2.934,2.002 -4.506,2.614 -1.57,0.613 -3.086,0.918 -4.547,0.918 -1.902,0 -3.652,-0.127 -5.25,-0.387 -1.598,-0.26 -2.97,-0.682 -4.113,-1.266 -1.144,-0.585 -2.032,-1.377 -2.667,-2.371 -0.634,-0.993 -0.95,-2.226 -0.95,-3.698 0,-1.169 0.233,-2.165 0.703,-2.981 0.467,-0.818 1.097,-1.514 1.881,-2.084 0.784,-0.574 1.674,-1.043 2.667,-1.41 0.991,-0.368 2.016,-0.688 3.079,-0.961 1.061,-0.273 2.107,-0.51 3.141,-0.715 1.035,-0.203 1.976,-0.43 2.831,-0.674 1.655,-0.463 3.391,-0.953 5.208,-1.471 1.821,-0.517 3.613,-1.124 5.375,-1.818 1.763,-0.695 3.447,-1.492 5.044,-2.391 1.598,-0.898 3.006,-1.967 4.215,-3.207 1.214,-1.239 2.178,-2.67 2.895,-4.291 C -0.358,3.956 0,2.097 0,0" /></g><g
           transform="translate(343.3301,180.8999)"
           id="g24"><path
             id="path26"
             style="fill:#295198;fill-opacity:1;fill-rule:nonzero;stroke:none"
             d="m 0,0 -42.745,0 0,58.838 42.745,0 0,-7.519 -26.333,0 0,-18.18 20.34,0 0,-7.48 -20.34,0 0,-18.142 L 0,7.517 0,0 Z" /></g><g
           transform="translate(366.624,180.8999)"
           id="g28"><path
             id="path30"
             style="fill:#295198;fill-opacity:1;fill-rule:nonzero;stroke:none"
             d="m 0,0 -16.412,0 0,58.838 16.412,0 0,-28.029 c 5.07,3.84 9.805,8.103 14.199,12.789 4.397,4.684 8.178,9.778 11.348,15.283 l 11.203,0 C 33.828,53.947 30.48,49.344 26.706,45.068 22.93,40.791 18.822,36.827 14.387,33.178 L 38.154,0 21.042,0 3.142,25.005 C 2.619,24.65 2.102,24.312 1.592,23.984 1.081,23.657 0.551,23.331 0,23.005 L 0,0 Z" /></g><g
           transform="translate(440.1143,203.4194)"
           id="g32"><path
             id="path34"
             style="fill:#295198;fill-opacity:1;fill-rule:nonzero;stroke:none"
             d="M 0,0 -7.253,21.646 -14.008,0 0,0 Z m 20.74,-22.642 -13.594,0 -4.318,14.133 -19.412,0 -4.468,-14.133 -10.833,0 19.832,58.91 12.375,0 20.418,-58.91 z" /></g><g
           transform="translate(285.8369,186.9849)"
           id="g36"><path
             id="path38"
             style="fill:#c63033;fill-opacity:1;fill-rule:nonzero;stroke:none"
             d="m 0,0 c -1.104,1.007 -2.266,2.118 -3.482,3.336 -1.217,1.216 -2.44,2.546 -3.673,3.987 -1.231,1.441 -2.448,2.986 -3.65,4.636 -1.204,1.651 -2.356,3.399 -3.461,5.247 2.463,0.362 4.84,1.11 7.135,2.243 2.29,1.134 4.322,2.56 6.09,4.281 1.77,1.722 3.186,3.679 4.246,5.875 1.062,2.197 1.592,4.541 1.592,7.031 0,3.188 -0.602,5.902 -1.805,8.14 -1.203,2.24 -2.816,4.066 -4.839,5.478 -2.024,1.413 -4.352,2.446 -6.984,3.105 -2.634,0.658 -5.364,0.987 -8.193,0.987 l -12.726,0 0,-5.918 9.215,0 c 3.991,0 6.982,-0.952 8.978,-2.855 1.996,-1.901 2.994,-4.883 2.994,-8.937 0,-1.905 -0.227,-3.721 -0.678,-5.457 -0.454,-1.733 -1.161,-3.265 -2.124,-4.594 -0.961,-1.328 -2.201,-2.392 -3.715,-3.189 -1.513,-0.798 -3.332,-1.196 -5.455,-1.196 l -9.215,0 0,-5.709 8.406,0 c 0.708,-3.692 1.721,-6.945 3.036,-9.757 1.318,-2.809 2.627,-5.168 3.929,-7.072 1.527,-2.236 3.141,-4.153 4.841,-5.747 l 17.267,0 C 5.182,-4.379 2.604,-2.351 0,0" /></g><g
           transform="translate(237.9326,231.9585)"
           id="g40"><path
             id="path42"
             style="fill:#295198;fill-opacity:1;fill-rule:nonzero;stroke:none"
             d="m 0,0 -1.418,9.327 13.051,0 0,-36.224 c 0,-15.214 -11.33,-25.449 -29.136,-25.449 -25.898,0 -26.505,21.555 -26.505,23.094 l 0,29.252 -1.416,9.327 14.568,0 0,-37.854 c 0,-9.057 6.474,-14.943 15.174,-14.943 8.801,0 15.682,6.52 15.682,15.576 L 0,0 Z" /></g><path
           id="path44"
           style="fill:#373535;fill-opacity:1;fill-rule:nonzero;stroke:none"
           d="M 595.275,420.944 0,420.944 0,0 l 595.275,0 0,420.944 z M 595.025,0.25 0.25,0.25 l 0,420.444 594.775,0 0,-420.444 z" /></g></g></g></svg>